%TF.GenerationSoftware,KiCad,Pcbnew,9.0.7*%
%TF.CreationDate,2026-03-21T21:19:47+00:00*%
%TF.ProjectId,hexpansion_grove,68657870-616e-4736-996f-6e5f67726f76,rev?*%
%TF.SameCoordinates,Original*%
%TF.FileFunction,Profile,NP*%
%FSLAX46Y46*%
G04 Gerber Fmt 4.6, Leading zero omitted, Abs format (unit mm)*
G04 Created by KiCad (PCBNEW 9.0.7) date 2026-03-21 21:19:47*
%MOMM*%
%LPD*%
G01*
G04 APERTURE LIST*
%TA.AperFunction,Profile*%
%ADD10C,0.050000*%
%TD*%
%TA.AperFunction,Profile*%
%ADD11C,0.100000*%
%TD*%
G04 APERTURE END LIST*
D10*
X100500000Y-90473725D02*
X115499995Y-81813472D01*
X131499989Y-90473725D02*
G75*
G02*
X131999951Y-91339750I-499989J-865975D01*
G01*
D11*
X100250000Y-94000000D02*
G75*
G02*
X100000000Y-93750000I0J250000D01*
G01*
D10*
X115499995Y-81813472D02*
G75*
G02*
X116499995Y-81813472I500000J-866022D01*
G01*
X100500000Y-109526269D02*
X115499995Y-118186522D01*
X131999989Y-91339750D02*
X131999989Y-108660243D01*
X100000000Y-93750000D02*
X100000000Y-91339750D01*
X100000000Y-91339750D02*
G75*
G02*
X100500021Y-90473762I1000000J-50D01*
G01*
X100000000Y-106250000D02*
X100000000Y-108660243D01*
X116499995Y-81813472D02*
X131499989Y-90473725D01*
D11*
X100000000Y-106250000D02*
G75*
G02*
X100250000Y-106000000I250000J0D01*
G01*
D10*
X100500000Y-109526269D02*
G75*
G02*
X99999962Y-108660243I500000J866069D01*
G01*
X131999989Y-108660243D02*
G75*
G02*
X131499967Y-109526232I-999989J43D01*
G01*
X116499995Y-118186522D02*
G75*
G02*
X115499995Y-118186522I-500000J866022D01*
G01*
X116499995Y-118186522D02*
X131499989Y-109526269D01*
%TO.C,J1*%
X98250000Y-104400000D02*
X98250000Y-95600000D01*
X104500000Y-94000000D02*
X100250000Y-94000000D01*
X104500000Y-95400000D02*
X98450000Y-95400000D01*
X104500000Y-104600000D02*
X98450000Y-104600000D01*
X104500000Y-106000000D02*
X100250000Y-106000000D01*
X98250000Y-95600000D02*
G75*
G02*
X98450000Y-95400000I200000J0D01*
G01*
X98450000Y-104600000D02*
G75*
G02*
X98250000Y-104400000I0J200000D01*
G01*
X104500000Y-94000000D02*
G75*
G02*
X105200000Y-94700000I0J-700000D01*
G01*
X104500000Y-104600000D02*
G75*
G02*
X105200000Y-105300000I0J-700000D01*
G01*
X105200000Y-94700000D02*
G75*
G02*
X104500000Y-95400000I-700000J0D01*
G01*
X105200000Y-105300000D02*
G75*
G02*
X104500000Y-106000000I-700000J0D01*
G01*
%TD*%
M02*
