%TF.GenerationSoftware,KiCad,Pcbnew,9.0.7*%
%TF.CreationDate,2026-03-21T21:19:47+00:00*%
%TF.ProjectId,hexpansion_grove,68657870-616e-4736-996f-6e5f67726f76,rev?*%
%TF.SameCoordinates,Original*%
%TF.FileFunction,Soldermask,Top*%
%TF.FilePolarity,Negative*%
%FSLAX46Y46*%
G04 Gerber Fmt 4.6, Leading zero omitted, Abs format (unit mm)*
G04 Created by KiCad (PCBNEW 9.0.7) date 2026-03-21 21:19:47*
%MOMM*%
%LPD*%
G01*
G04 APERTURE LIST*
G04 Aperture macros list*
%AMRoundRect*
0 Rectangle with rounded corners*
0 $1 Rounding radius*
0 $2 $3 $4 $5 $6 $7 $8 $9 X,Y pos of 4 corners*
0 Add a 4 corners polygon primitive as box body*
4,1,4,$2,$3,$4,$5,$6,$7,$8,$9,$2,$3,0*
0 Add four circle primitives for the rounded corners*
1,1,$1+$1,$2,$3*
1,1,$1+$1,$4,$5*
1,1,$1+$1,$6,$7*
1,1,$1+$1,$8,$9*
0 Add four rect primitives between the rounded corners*
20,1,$1+$1,$2,$3,$4,$5,0*
20,1,$1+$1,$4,$5,$6,$7,0*
20,1,$1+$1,$6,$7,$8,$9,0*
20,1,$1+$1,$8,$9,$2,$3,0*%
G04 Aperture macros list end*
%ADD10RoundRect,0.150000X1.600000X0.150000X-1.600000X0.150000X-1.600000X-0.150000X1.600000X-0.150000X0*%
%ADD11RoundRect,0.150000X1.200000X0.150000X-1.200000X0.150000X-1.200000X-0.150000X1.200000X-0.150000X0*%
%ADD12RoundRect,0.243750X-0.243750X-0.456250X0.243750X-0.456250X0.243750X0.456250X-0.243750X0.456250X0*%
%ADD13RoundRect,0.250000X-0.450000X0.350000X-0.450000X-0.350000X0.450000X-0.350000X0.450000X0.350000X0*%
%ADD14C,0.700000*%
%ADD15C,4.400000*%
%ADD16RoundRect,0.250000X-0.350000X-0.450000X0.350000X-0.450000X0.350000X0.450000X-0.350000X0.450000X0*%
%ADD17RoundRect,0.101600X-0.750000X-0.750000X0.750000X-0.750000X0.750000X0.750000X-0.750000X0.750000X0*%
%ADD18C,1.703200*%
%ADD19RoundRect,0.150000X-0.825000X-0.150000X0.825000X-0.150000X0.825000X0.150000X-0.825000X0.150000X0*%
%ADD20RoundRect,0.250000X0.475000X-0.337500X0.475000X0.337500X-0.475000X0.337500X-0.475000X-0.337500X0*%
%ADD21RoundRect,0.250000X0.337500X0.475000X-0.337500X0.475000X-0.337500X-0.475000X0.337500X-0.475000X0*%
G04 APERTURE END LIST*
D10*
%TO.C,J1*%
X100500000Y-96600000D03*
D11*
X100900000Y-97400000D03*
X100900000Y-98200000D03*
D10*
X100500000Y-99000000D03*
D11*
X100900000Y-99800000D03*
X100900000Y-100600000D03*
D10*
X100500000Y-101400000D03*
D11*
X100900000Y-102200000D03*
X100900000Y-103000000D03*
D10*
X100500000Y-103800000D03*
%TD*%
D12*
%TO.C,D1*%
X128062500Y-103710451D03*
X129937500Y-103710451D03*
%TD*%
D13*
%TO.C,R3*%
X118542331Y-86025169D03*
X118542331Y-88025169D03*
%TD*%
D14*
%TO.C,H2*%
X110850000Y-87500000D03*
X111333274Y-86333274D03*
X111333274Y-88666726D03*
X112500000Y-85850000D03*
D15*
X112500000Y-87500000D03*
D14*
X112500000Y-89150000D03*
X113666726Y-86333274D03*
X113666726Y-88666726D03*
X114150000Y-87500000D03*
%TD*%
D16*
%TO.C,R1*%
X128000000Y-95763650D03*
X130000000Y-95763650D03*
%TD*%
D17*
%TO.C,J3*%
X120000000Y-99500000D03*
D18*
X122000000Y-99500000D03*
X124000000Y-99500000D03*
X126000000Y-99500000D03*
%TD*%
D19*
%TO.C,U1*%
X109711377Y-91417565D03*
X109711377Y-92687565D03*
X109711377Y-93957565D03*
X109711377Y-95227565D03*
X114661377Y-95227565D03*
X114661377Y-93957565D03*
X114661377Y-92687565D03*
X114661377Y-91417565D03*
%TD*%
D20*
%TO.C,C1*%
X116457701Y-88080622D03*
X116457701Y-86005622D03*
%TD*%
D13*
%TO.C,R2*%
X120523372Y-85965348D03*
X120523372Y-87965348D03*
%TD*%
D17*
%TO.C,J2*%
X120000000Y-91500000D03*
D18*
X122000000Y-91500000D03*
X124000000Y-91500000D03*
X126000000Y-91500000D03*
%TD*%
D14*
%TO.C,H1*%
X110850000Y-112500000D03*
X111333274Y-111333274D03*
X111333274Y-113666726D03*
X112500000Y-110850000D03*
D15*
X112500000Y-112500000D03*
D14*
X112500000Y-114150000D03*
X113666726Y-111333274D03*
X113666726Y-113666726D03*
X114150000Y-112500000D03*
%TD*%
D17*
%TO.C,J4*%
X120000000Y-107500000D03*
D18*
X122000000Y-107500000D03*
X124000000Y-107500000D03*
X126000000Y-107500000D03*
%TD*%
D21*
%TO.C,C2*%
X120417500Y-113030000D03*
X118342500Y-113030000D03*
%TD*%
M02*
