%TF.GenerationSoftware,KiCad,Pcbnew,9.0.7*%
%TF.CreationDate,2026-03-21T21:19:47+00:00*%
%TF.ProjectId,hexpansion_grove,68657870-616e-4736-996f-6e5f67726f76,rev?*%
%TF.SameCoordinates,Original*%
%TF.FileFunction,Legend,Bot*%
%TF.FilePolarity,Positive*%
%FSLAX46Y46*%
G04 Gerber Fmt 4.6, Leading zero omitted, Abs format (unit mm)*
G04 Created by KiCad (PCBNEW 9.0.7) date 2026-03-21 21:19:47*
%MOMM*%
%LPD*%
G01*
G04 APERTURE LIST*
G04 Aperture macros list*
%AMRoundRect*
0 Rectangle with rounded corners*
0 $1 Rounding radius*
0 $2 $3 $4 $5 $6 $7 $8 $9 X,Y pos of 4 corners*
0 Add a 4 corners polygon primitive as box body*
4,1,4,$2,$3,$4,$5,$6,$7,$8,$9,$2,$3,0*
0 Add four circle primitives for the rounded corners*
1,1,$1+$1,$2,$3*
1,1,$1+$1,$4,$5*
1,1,$1+$1,$6,$7*
1,1,$1+$1,$8,$9*
0 Add four rect primitives between the rounded corners*
20,1,$1+$1,$2,$3,$4,$5,0*
20,1,$1+$1,$4,$5,$6,$7,0*
20,1,$1+$1,$6,$7,$8,$9,0*
20,1,$1+$1,$8,$9,$2,$3,0*%
%AMFreePoly0*
4,1,23,0.500000,-0.750000,0.000000,-0.750000,0.000000,-0.745722,-0.065263,-0.745722,-0.191342,-0.711940,-0.304381,-0.646677,-0.396677,-0.554381,-0.461940,-0.441342,-0.495722,-0.315263,-0.495722,-0.250000,-0.500000,-0.250000,-0.500000,0.250000,-0.495722,0.250000,-0.495722,0.315263,-0.461940,0.441342,-0.396677,0.554381,-0.304381,0.646677,-0.191342,0.711940,-0.065263,0.745722,0.000000,0.745722,
0.000000,0.750000,0.500000,0.750000,0.500000,-0.750000,0.500000,-0.750000,$1*%
%AMFreePoly1*
4,1,23,0.000000,0.745722,0.065263,0.745722,0.191342,0.711940,0.304381,0.646677,0.396677,0.554381,0.461940,0.441342,0.495722,0.315263,0.495722,0.250000,0.500000,0.250000,0.500000,-0.250000,0.495722,-0.250000,0.495722,-0.315263,0.461940,-0.441342,0.396677,-0.554381,0.304381,-0.646677,0.191342,-0.711940,0.065263,-0.745722,0.000000,-0.745722,0.000000,-0.750000,-0.500000,-0.750000,
-0.500000,0.750000,0.000000,0.750000,0.000000,0.745722,0.000000,0.745722,$1*%
G04 Aperture macros list end*
%ADD10C,0.150000*%
%ADD11C,0.125000*%
%ADD12C,0.300000*%
%ADD13C,0.200000*%
%ADD14C,0.250000*%
%ADD15C,0.120000*%
%ADD16RoundRect,0.150000X-1.600000X-0.150000X1.600000X-0.150000X1.600000X0.150000X-1.600000X0.150000X0*%
%ADD17RoundRect,0.150000X-1.200000X-0.150000X1.200000X-0.150000X1.200000X0.150000X-1.200000X0.150000X0*%
%ADD18C,0.700000*%
%ADD19C,4.400000*%
%ADD20RoundRect,0.101600X-0.750000X-0.750000X0.750000X-0.750000X0.750000X0.750000X-0.750000X0.750000X0*%
%ADD21C,1.703200*%
%ADD22FreePoly0,0.000000*%
%ADD23FreePoly1,0.000000*%
G04 APERTURE END LIST*
D10*
X118445342Y-107064398D02*
X117245342Y-107064398D01*
X117188200Y-108492970D02*
X118731057Y-107464398D01*
X117245342Y-109121541D02*
X117245342Y-109350113D01*
X117245342Y-109350113D02*
X117302485Y-109464398D01*
X117302485Y-109464398D02*
X117416771Y-109578684D01*
X117416771Y-109578684D02*
X117645342Y-109635827D01*
X117645342Y-109635827D02*
X118045342Y-109635827D01*
X118045342Y-109635827D02*
X118273914Y-109578684D01*
X118273914Y-109578684D02*
X118388200Y-109464398D01*
X118388200Y-109464398D02*
X118445342Y-109350113D01*
X118445342Y-109350113D02*
X118445342Y-109121541D01*
X118445342Y-109121541D02*
X118388200Y-109007256D01*
X118388200Y-109007256D02*
X118273914Y-108892970D01*
X118273914Y-108892970D02*
X118045342Y-108835827D01*
X118045342Y-108835827D02*
X117645342Y-108835827D01*
X117645342Y-108835827D02*
X117416771Y-108892970D01*
X117416771Y-108892970D02*
X117302485Y-109007256D01*
X117302485Y-109007256D02*
X117245342Y-109121541D01*
X117359628Y-111007256D02*
X117302485Y-111064399D01*
X117302485Y-111064399D02*
X117245342Y-111178685D01*
X117245342Y-111178685D02*
X117245342Y-111464399D01*
X117245342Y-111464399D02*
X117302485Y-111578685D01*
X117302485Y-111578685D02*
X117359628Y-111635827D01*
X117359628Y-111635827D02*
X117473914Y-111692970D01*
X117473914Y-111692970D02*
X117588200Y-111692970D01*
X117588200Y-111692970D02*
X117759628Y-111635827D01*
X117759628Y-111635827D02*
X118445342Y-110950113D01*
X118445342Y-110950113D02*
X118445342Y-111692970D01*
D11*
X122523500Y-92872712D02*
X122571119Y-93015569D01*
X122571119Y-93015569D02*
X122571119Y-93253664D01*
X122571119Y-93253664D02*
X122523500Y-93348902D01*
X122523500Y-93348902D02*
X122475880Y-93396521D01*
X122475880Y-93396521D02*
X122380642Y-93444140D01*
X122380642Y-93444140D02*
X122285404Y-93444140D01*
X122285404Y-93444140D02*
X122190166Y-93396521D01*
X122190166Y-93396521D02*
X122142547Y-93348902D01*
X122142547Y-93348902D02*
X122094928Y-93253664D01*
X122094928Y-93253664D02*
X122047309Y-93063188D01*
X122047309Y-93063188D02*
X121999690Y-92967950D01*
X121999690Y-92967950D02*
X121952071Y-92920331D01*
X121952071Y-92920331D02*
X121856833Y-92872712D01*
X121856833Y-92872712D02*
X121761595Y-92872712D01*
X121761595Y-92872712D02*
X121666357Y-92920331D01*
X121666357Y-92920331D02*
X121618738Y-92967950D01*
X121618738Y-92967950D02*
X121571119Y-93063188D01*
X121571119Y-93063188D02*
X121571119Y-93301283D01*
X121571119Y-93301283D02*
X121618738Y-93444140D01*
X122571119Y-93872712D02*
X121571119Y-93872712D01*
X121571119Y-93872712D02*
X121571119Y-94110807D01*
X121571119Y-94110807D02*
X121618738Y-94253664D01*
X121618738Y-94253664D02*
X121713976Y-94348902D01*
X121713976Y-94348902D02*
X121809214Y-94396521D01*
X121809214Y-94396521D02*
X121999690Y-94444140D01*
X121999690Y-94444140D02*
X122142547Y-94444140D01*
X122142547Y-94444140D02*
X122333023Y-94396521D01*
X122333023Y-94396521D02*
X122428261Y-94348902D01*
X122428261Y-94348902D02*
X122523500Y-94253664D01*
X122523500Y-94253664D02*
X122571119Y-94110807D01*
X122571119Y-94110807D02*
X122571119Y-93872712D01*
X122285404Y-94825093D02*
X122285404Y-95301283D01*
X122571119Y-94729855D02*
X121571119Y-95063188D01*
X121571119Y-95063188D02*
X122571119Y-95396521D01*
X125618738Y-109644140D02*
X125571119Y-109548902D01*
X125571119Y-109548902D02*
X125571119Y-109406045D01*
X125571119Y-109406045D02*
X125618738Y-109263188D01*
X125618738Y-109263188D02*
X125713976Y-109167950D01*
X125713976Y-109167950D02*
X125809214Y-109120331D01*
X125809214Y-109120331D02*
X125999690Y-109072712D01*
X125999690Y-109072712D02*
X126142547Y-109072712D01*
X126142547Y-109072712D02*
X126333023Y-109120331D01*
X126333023Y-109120331D02*
X126428261Y-109167950D01*
X126428261Y-109167950D02*
X126523500Y-109263188D01*
X126523500Y-109263188D02*
X126571119Y-109406045D01*
X126571119Y-109406045D02*
X126571119Y-109501283D01*
X126571119Y-109501283D02*
X126523500Y-109644140D01*
X126523500Y-109644140D02*
X126475880Y-109691759D01*
X126475880Y-109691759D02*
X126142547Y-109691759D01*
X126142547Y-109691759D02*
X126142547Y-109501283D01*
X126571119Y-110120331D02*
X125571119Y-110120331D01*
X125571119Y-110120331D02*
X126571119Y-110691759D01*
X126571119Y-110691759D02*
X125571119Y-110691759D01*
X126571119Y-111167950D02*
X125571119Y-111167950D01*
X125571119Y-111167950D02*
X125571119Y-111406045D01*
X125571119Y-111406045D02*
X125618738Y-111548902D01*
X125618738Y-111548902D02*
X125713976Y-111644140D01*
X125713976Y-111644140D02*
X125809214Y-111691759D01*
X125809214Y-111691759D02*
X125999690Y-111739378D01*
X125999690Y-111739378D02*
X126142547Y-111739378D01*
X126142547Y-111739378D02*
X126333023Y-111691759D01*
X126333023Y-111691759D02*
X126428261Y-111644140D01*
X126428261Y-111644140D02*
X126523500Y-111548902D01*
X126523500Y-111548902D02*
X126571119Y-111406045D01*
X126571119Y-111406045D02*
X126571119Y-111167950D01*
X123571119Y-100825093D02*
X123571119Y-101444140D01*
X123571119Y-101444140D02*
X123952071Y-101110807D01*
X123952071Y-101110807D02*
X123952071Y-101253664D01*
X123952071Y-101253664D02*
X123999690Y-101348902D01*
X123999690Y-101348902D02*
X124047309Y-101396521D01*
X124047309Y-101396521D02*
X124142547Y-101444140D01*
X124142547Y-101444140D02*
X124380642Y-101444140D01*
X124380642Y-101444140D02*
X124475880Y-101396521D01*
X124475880Y-101396521D02*
X124523500Y-101348902D01*
X124523500Y-101348902D02*
X124571119Y-101253664D01*
X124571119Y-101253664D02*
X124571119Y-100967950D01*
X124571119Y-100967950D02*
X124523500Y-100872712D01*
X124523500Y-100872712D02*
X124475880Y-100825093D01*
X123571119Y-101729855D02*
X124571119Y-102063188D01*
X124571119Y-102063188D02*
X123571119Y-102396521D01*
X123571119Y-102634617D02*
X123571119Y-103253664D01*
X123571119Y-103253664D02*
X123952071Y-102920331D01*
X123952071Y-102920331D02*
X123952071Y-103063188D01*
X123952071Y-103063188D02*
X123999690Y-103158426D01*
X123999690Y-103158426D02*
X124047309Y-103206045D01*
X124047309Y-103206045D02*
X124142547Y-103253664D01*
X124142547Y-103253664D02*
X124380642Y-103253664D01*
X124380642Y-103253664D02*
X124475880Y-103206045D01*
X124475880Y-103206045D02*
X124523500Y-103158426D01*
X124523500Y-103158426D02*
X124571119Y-103063188D01*
X124571119Y-103063188D02*
X124571119Y-102777474D01*
X124571119Y-102777474D02*
X124523500Y-102682236D01*
X124523500Y-102682236D02*
X124475880Y-102634617D01*
D12*
X111527341Y-95320225D02*
X111455912Y-95177368D01*
X111455912Y-95177368D02*
X111455912Y-94963082D01*
X111455912Y-94963082D02*
X111527341Y-94748796D01*
X111527341Y-94748796D02*
X111670198Y-94605939D01*
X111670198Y-94605939D02*
X111813055Y-94534510D01*
X111813055Y-94534510D02*
X112098769Y-94463082D01*
X112098769Y-94463082D02*
X112313055Y-94463082D01*
X112313055Y-94463082D02*
X112598769Y-94534510D01*
X112598769Y-94534510D02*
X112741626Y-94605939D01*
X112741626Y-94605939D02*
X112884484Y-94748796D01*
X112884484Y-94748796D02*
X112955912Y-94963082D01*
X112955912Y-94963082D02*
X112955912Y-95105939D01*
X112955912Y-95105939D02*
X112884484Y-95320225D01*
X112884484Y-95320225D02*
X112813055Y-95391653D01*
X112813055Y-95391653D02*
X112313055Y-95391653D01*
X112313055Y-95391653D02*
X112313055Y-95105939D01*
X112955912Y-96034510D02*
X111955912Y-96034510D01*
X112241626Y-96034510D02*
X112098769Y-96105939D01*
X112098769Y-96105939D02*
X112027341Y-96177368D01*
X112027341Y-96177368D02*
X111955912Y-96320225D01*
X111955912Y-96320225D02*
X111955912Y-96463082D01*
X112955912Y-97177367D02*
X112884484Y-97034510D01*
X112884484Y-97034510D02*
X112813055Y-96963081D01*
X112813055Y-96963081D02*
X112670198Y-96891653D01*
X112670198Y-96891653D02*
X112241626Y-96891653D01*
X112241626Y-96891653D02*
X112098769Y-96963081D01*
X112098769Y-96963081D02*
X112027341Y-97034510D01*
X112027341Y-97034510D02*
X111955912Y-97177367D01*
X111955912Y-97177367D02*
X111955912Y-97391653D01*
X111955912Y-97391653D02*
X112027341Y-97534510D01*
X112027341Y-97534510D02*
X112098769Y-97605939D01*
X112098769Y-97605939D02*
X112241626Y-97677367D01*
X112241626Y-97677367D02*
X112670198Y-97677367D01*
X112670198Y-97677367D02*
X112813055Y-97605939D01*
X112813055Y-97605939D02*
X112884484Y-97534510D01*
X112884484Y-97534510D02*
X112955912Y-97391653D01*
X112955912Y-97391653D02*
X112955912Y-97177367D01*
X111955912Y-98177367D02*
X112955912Y-98534510D01*
X112955912Y-98534510D02*
X111955912Y-98891653D01*
X112884484Y-100034510D02*
X112955912Y-99891653D01*
X112955912Y-99891653D02*
X112955912Y-99605939D01*
X112955912Y-99605939D02*
X112884484Y-99463081D01*
X112884484Y-99463081D02*
X112741626Y-99391653D01*
X112741626Y-99391653D02*
X112170198Y-99391653D01*
X112170198Y-99391653D02*
X112027341Y-99463081D01*
X112027341Y-99463081D02*
X111955912Y-99605939D01*
X111955912Y-99605939D02*
X111955912Y-99891653D01*
X111955912Y-99891653D02*
X112027341Y-100034510D01*
X112027341Y-100034510D02*
X112170198Y-100105939D01*
X112170198Y-100105939D02*
X112313055Y-100105939D01*
X112313055Y-100105939D02*
X112455912Y-99391653D01*
X112955912Y-101891652D02*
X111455912Y-101891652D01*
X111384484Y-103677367D02*
X113313055Y-102391653D01*
X111455912Y-104463082D02*
X111455912Y-104748796D01*
X111455912Y-104748796D02*
X111527341Y-104891653D01*
X111527341Y-104891653D02*
X111670198Y-105034510D01*
X111670198Y-105034510D02*
X111955912Y-105105939D01*
X111955912Y-105105939D02*
X112455912Y-105105939D01*
X112455912Y-105105939D02*
X112741626Y-105034510D01*
X112741626Y-105034510D02*
X112884484Y-104891653D01*
X112884484Y-104891653D02*
X112955912Y-104748796D01*
X112955912Y-104748796D02*
X112955912Y-104463082D01*
X112955912Y-104463082D02*
X112884484Y-104320225D01*
X112884484Y-104320225D02*
X112741626Y-104177367D01*
X112741626Y-104177367D02*
X112455912Y-104105939D01*
X112455912Y-104105939D02*
X111955912Y-104105939D01*
X111955912Y-104105939D02*
X111670198Y-104177367D01*
X111670198Y-104177367D02*
X111527341Y-104320225D01*
X111527341Y-104320225D02*
X111455912Y-104463082D01*
X115370828Y-94534510D02*
X113870828Y-94534510D01*
X114585114Y-94534510D02*
X114585114Y-95391653D01*
X115370828Y-95391653D02*
X113870828Y-95391653D01*
X115299400Y-96677368D02*
X115370828Y-96534511D01*
X115370828Y-96534511D02*
X115370828Y-96248797D01*
X115370828Y-96248797D02*
X115299400Y-96105939D01*
X115299400Y-96105939D02*
X115156542Y-96034511D01*
X115156542Y-96034511D02*
X114585114Y-96034511D01*
X114585114Y-96034511D02*
X114442257Y-96105939D01*
X114442257Y-96105939D02*
X114370828Y-96248797D01*
X114370828Y-96248797D02*
X114370828Y-96534511D01*
X114370828Y-96534511D02*
X114442257Y-96677368D01*
X114442257Y-96677368D02*
X114585114Y-96748797D01*
X114585114Y-96748797D02*
X114727971Y-96748797D01*
X114727971Y-96748797D02*
X114870828Y-96034511D01*
X115370828Y-97248796D02*
X114370828Y-98034511D01*
X114370828Y-97248796D02*
X115370828Y-98034511D01*
X114370828Y-98605939D02*
X115870828Y-98605939D01*
X114442257Y-98605939D02*
X114370828Y-98748797D01*
X114370828Y-98748797D02*
X114370828Y-99034511D01*
X114370828Y-99034511D02*
X114442257Y-99177368D01*
X114442257Y-99177368D02*
X114513685Y-99248797D01*
X114513685Y-99248797D02*
X114656542Y-99320225D01*
X114656542Y-99320225D02*
X115085114Y-99320225D01*
X115085114Y-99320225D02*
X115227971Y-99248797D01*
X115227971Y-99248797D02*
X115299400Y-99177368D01*
X115299400Y-99177368D02*
X115370828Y-99034511D01*
X115370828Y-99034511D02*
X115370828Y-98748797D01*
X115370828Y-98748797D02*
X115299400Y-98605939D01*
X115370828Y-100605940D02*
X114585114Y-100605940D01*
X114585114Y-100605940D02*
X114442257Y-100534511D01*
X114442257Y-100534511D02*
X114370828Y-100391654D01*
X114370828Y-100391654D02*
X114370828Y-100105940D01*
X114370828Y-100105940D02*
X114442257Y-99963082D01*
X115299400Y-100605940D02*
X115370828Y-100463082D01*
X115370828Y-100463082D02*
X115370828Y-100105940D01*
X115370828Y-100105940D02*
X115299400Y-99963082D01*
X115299400Y-99963082D02*
X115156542Y-99891654D01*
X115156542Y-99891654D02*
X115013685Y-99891654D01*
X115013685Y-99891654D02*
X114870828Y-99963082D01*
X114870828Y-99963082D02*
X114799400Y-100105940D01*
X114799400Y-100105940D02*
X114799400Y-100463082D01*
X114799400Y-100463082D02*
X114727971Y-100605940D01*
X114370828Y-101320225D02*
X115370828Y-101320225D01*
X114513685Y-101320225D02*
X114442257Y-101391654D01*
X114442257Y-101391654D02*
X114370828Y-101534511D01*
X114370828Y-101534511D02*
X114370828Y-101748797D01*
X114370828Y-101748797D02*
X114442257Y-101891654D01*
X114442257Y-101891654D02*
X114585114Y-101963083D01*
X114585114Y-101963083D02*
X115370828Y-101963083D01*
X115299400Y-102605940D02*
X115370828Y-102748797D01*
X115370828Y-102748797D02*
X115370828Y-103034511D01*
X115370828Y-103034511D02*
X115299400Y-103177368D01*
X115299400Y-103177368D02*
X115156542Y-103248797D01*
X115156542Y-103248797D02*
X115085114Y-103248797D01*
X115085114Y-103248797D02*
X114942257Y-103177368D01*
X114942257Y-103177368D02*
X114870828Y-103034511D01*
X114870828Y-103034511D02*
X114870828Y-102820226D01*
X114870828Y-102820226D02*
X114799400Y-102677368D01*
X114799400Y-102677368D02*
X114656542Y-102605940D01*
X114656542Y-102605940D02*
X114585114Y-102605940D01*
X114585114Y-102605940D02*
X114442257Y-102677368D01*
X114442257Y-102677368D02*
X114370828Y-102820226D01*
X114370828Y-102820226D02*
X114370828Y-103034511D01*
X114370828Y-103034511D02*
X114442257Y-103177368D01*
X115370828Y-103891654D02*
X114370828Y-103891654D01*
X113870828Y-103891654D02*
X113942257Y-103820226D01*
X113942257Y-103820226D02*
X114013685Y-103891654D01*
X114013685Y-103891654D02*
X113942257Y-103963083D01*
X113942257Y-103963083D02*
X113870828Y-103891654D01*
X113870828Y-103891654D02*
X114013685Y-103891654D01*
X115370828Y-104820226D02*
X115299400Y-104677369D01*
X115299400Y-104677369D02*
X115227971Y-104605940D01*
X115227971Y-104605940D02*
X115085114Y-104534512D01*
X115085114Y-104534512D02*
X114656542Y-104534512D01*
X114656542Y-104534512D02*
X114513685Y-104605940D01*
X114513685Y-104605940D02*
X114442257Y-104677369D01*
X114442257Y-104677369D02*
X114370828Y-104820226D01*
X114370828Y-104820226D02*
X114370828Y-105034512D01*
X114370828Y-105034512D02*
X114442257Y-105177369D01*
X114442257Y-105177369D02*
X114513685Y-105248798D01*
X114513685Y-105248798D02*
X114656542Y-105320226D01*
X114656542Y-105320226D02*
X115085114Y-105320226D01*
X115085114Y-105320226D02*
X115227971Y-105248798D01*
X115227971Y-105248798D02*
X115299400Y-105177369D01*
X115299400Y-105177369D02*
X115370828Y-105034512D01*
X115370828Y-105034512D02*
X115370828Y-104820226D01*
X114370828Y-105963083D02*
X115370828Y-105963083D01*
X114513685Y-105963083D02*
X114442257Y-106034512D01*
X114442257Y-106034512D02*
X114370828Y-106177369D01*
X114370828Y-106177369D02*
X114370828Y-106391655D01*
X114370828Y-106391655D02*
X114442257Y-106534512D01*
X114442257Y-106534512D02*
X114585114Y-106605941D01*
X114585114Y-106605941D02*
X115370828Y-106605941D01*
D11*
X123571119Y-92825093D02*
X123571119Y-93444140D01*
X123571119Y-93444140D02*
X123952071Y-93110807D01*
X123952071Y-93110807D02*
X123952071Y-93253664D01*
X123952071Y-93253664D02*
X123999690Y-93348902D01*
X123999690Y-93348902D02*
X124047309Y-93396521D01*
X124047309Y-93396521D02*
X124142547Y-93444140D01*
X124142547Y-93444140D02*
X124380642Y-93444140D01*
X124380642Y-93444140D02*
X124475880Y-93396521D01*
X124475880Y-93396521D02*
X124523500Y-93348902D01*
X124523500Y-93348902D02*
X124571119Y-93253664D01*
X124571119Y-93253664D02*
X124571119Y-92967950D01*
X124571119Y-92967950D02*
X124523500Y-92872712D01*
X124523500Y-92872712D02*
X124475880Y-92825093D01*
X123571119Y-93729855D02*
X124571119Y-94063188D01*
X124571119Y-94063188D02*
X123571119Y-94396521D01*
X123571119Y-94634617D02*
X123571119Y-95253664D01*
X123571119Y-95253664D02*
X123952071Y-94920331D01*
X123952071Y-94920331D02*
X123952071Y-95063188D01*
X123952071Y-95063188D02*
X123999690Y-95158426D01*
X123999690Y-95158426D02*
X124047309Y-95206045D01*
X124047309Y-95206045D02*
X124142547Y-95253664D01*
X124142547Y-95253664D02*
X124380642Y-95253664D01*
X124380642Y-95253664D02*
X124475880Y-95206045D01*
X124475880Y-95206045D02*
X124523500Y-95158426D01*
X124523500Y-95158426D02*
X124571119Y-95063188D01*
X124571119Y-95063188D02*
X124571119Y-94777474D01*
X124571119Y-94777474D02*
X124523500Y-94682236D01*
X124523500Y-94682236D02*
X124475880Y-94634617D01*
D13*
X109867219Y-99069673D02*
X108867219Y-99069673D01*
X109343409Y-99069673D02*
X109343409Y-99641101D01*
X109867219Y-99641101D02*
X108867219Y-99641101D01*
X109819600Y-100498244D02*
X109867219Y-100403006D01*
X109867219Y-100403006D02*
X109867219Y-100212530D01*
X109867219Y-100212530D02*
X109819600Y-100117292D01*
X109819600Y-100117292D02*
X109724361Y-100069673D01*
X109724361Y-100069673D02*
X109343409Y-100069673D01*
X109343409Y-100069673D02*
X109248171Y-100117292D01*
X109248171Y-100117292D02*
X109200552Y-100212530D01*
X109200552Y-100212530D02*
X109200552Y-100403006D01*
X109200552Y-100403006D02*
X109248171Y-100498244D01*
X109248171Y-100498244D02*
X109343409Y-100545863D01*
X109343409Y-100545863D02*
X109438647Y-100545863D01*
X109438647Y-100545863D02*
X109533885Y-100069673D01*
X109867219Y-100879197D02*
X109200552Y-101403006D01*
X109200552Y-100879197D02*
X109867219Y-101403006D01*
X109200552Y-101783959D02*
X110200552Y-101783959D01*
X109248171Y-101783959D02*
X109200552Y-101879197D01*
X109200552Y-101879197D02*
X109200552Y-102069673D01*
X109200552Y-102069673D02*
X109248171Y-102164911D01*
X109248171Y-102164911D02*
X109295790Y-102212530D01*
X109295790Y-102212530D02*
X109391028Y-102260149D01*
X109391028Y-102260149D02*
X109676742Y-102260149D01*
X109676742Y-102260149D02*
X109771980Y-102212530D01*
X109771980Y-102212530D02*
X109819600Y-102164911D01*
X109819600Y-102164911D02*
X109867219Y-102069673D01*
X109867219Y-102069673D02*
X109867219Y-101879197D01*
X109867219Y-101879197D02*
X109819600Y-101783959D01*
X109962457Y-102450626D02*
X109962457Y-103212530D01*
X109867219Y-103450626D02*
X108867219Y-103450626D01*
X108867219Y-103450626D02*
X108867219Y-103688721D01*
X108867219Y-103688721D02*
X108914838Y-103831578D01*
X108914838Y-103831578D02*
X109010076Y-103926816D01*
X109010076Y-103926816D02*
X109105314Y-103974435D01*
X109105314Y-103974435D02*
X109295790Y-104022054D01*
X109295790Y-104022054D02*
X109438647Y-104022054D01*
X109438647Y-104022054D02*
X109629123Y-103974435D01*
X109629123Y-103974435D02*
X109724361Y-103926816D01*
X109724361Y-103926816D02*
X109819600Y-103831578D01*
X109819600Y-103831578D02*
X109867219Y-103688721D01*
X109867219Y-103688721D02*
X109867219Y-103450626D01*
X109819600Y-104831578D02*
X109867219Y-104736340D01*
X109867219Y-104736340D02*
X109867219Y-104545864D01*
X109867219Y-104545864D02*
X109819600Y-104450626D01*
X109819600Y-104450626D02*
X109724361Y-104403007D01*
X109724361Y-104403007D02*
X109343409Y-104403007D01*
X109343409Y-104403007D02*
X109248171Y-104450626D01*
X109248171Y-104450626D02*
X109200552Y-104545864D01*
X109200552Y-104545864D02*
X109200552Y-104736340D01*
X109200552Y-104736340D02*
X109248171Y-104831578D01*
X109248171Y-104831578D02*
X109343409Y-104879197D01*
X109343409Y-104879197D02*
X109438647Y-104879197D01*
X109438647Y-104879197D02*
X109533885Y-104403007D01*
X109200552Y-105164912D02*
X109200552Y-105545864D01*
X108867219Y-105307769D02*
X109724361Y-105307769D01*
X109724361Y-105307769D02*
X109819600Y-105355388D01*
X109819600Y-105355388D02*
X109867219Y-105450626D01*
X109867219Y-105450626D02*
X109867219Y-105545864D01*
D11*
X123571119Y-108925093D02*
X123571119Y-109544140D01*
X123571119Y-109544140D02*
X123952071Y-109210807D01*
X123952071Y-109210807D02*
X123952071Y-109353664D01*
X123952071Y-109353664D02*
X123999690Y-109448902D01*
X123999690Y-109448902D02*
X124047309Y-109496521D01*
X124047309Y-109496521D02*
X124142547Y-109544140D01*
X124142547Y-109544140D02*
X124380642Y-109544140D01*
X124380642Y-109544140D02*
X124475880Y-109496521D01*
X124475880Y-109496521D02*
X124523500Y-109448902D01*
X124523500Y-109448902D02*
X124571119Y-109353664D01*
X124571119Y-109353664D02*
X124571119Y-109067950D01*
X124571119Y-109067950D02*
X124523500Y-108972712D01*
X124523500Y-108972712D02*
X124475880Y-108925093D01*
X123571119Y-109829855D02*
X124571119Y-110163188D01*
X124571119Y-110163188D02*
X123571119Y-110496521D01*
X123571119Y-110734617D02*
X123571119Y-111353664D01*
X123571119Y-111353664D02*
X123952071Y-111020331D01*
X123952071Y-111020331D02*
X123952071Y-111163188D01*
X123952071Y-111163188D02*
X123999690Y-111258426D01*
X123999690Y-111258426D02*
X124047309Y-111306045D01*
X124047309Y-111306045D02*
X124142547Y-111353664D01*
X124142547Y-111353664D02*
X124380642Y-111353664D01*
X124380642Y-111353664D02*
X124475880Y-111306045D01*
X124475880Y-111306045D02*
X124523500Y-111258426D01*
X124523500Y-111258426D02*
X124571119Y-111163188D01*
X124571119Y-111163188D02*
X124571119Y-110877474D01*
X124571119Y-110877474D02*
X124523500Y-110782236D01*
X124523500Y-110782236D02*
X124475880Y-110734617D01*
X120571119Y-109020331D02*
X119571119Y-109020331D01*
X120047309Y-109020331D02*
X120047309Y-109591759D01*
X120571119Y-109591759D02*
X119571119Y-109591759D01*
X120523500Y-110020331D02*
X120571119Y-110163188D01*
X120571119Y-110163188D02*
X120571119Y-110401283D01*
X120571119Y-110401283D02*
X120523500Y-110496521D01*
X120523500Y-110496521D02*
X120475880Y-110544140D01*
X120475880Y-110544140D02*
X120380642Y-110591759D01*
X120380642Y-110591759D02*
X120285404Y-110591759D01*
X120285404Y-110591759D02*
X120190166Y-110544140D01*
X120190166Y-110544140D02*
X120142547Y-110496521D01*
X120142547Y-110496521D02*
X120094928Y-110401283D01*
X120094928Y-110401283D02*
X120047309Y-110210807D01*
X120047309Y-110210807D02*
X119999690Y-110115569D01*
X119999690Y-110115569D02*
X119952071Y-110067950D01*
X119952071Y-110067950D02*
X119856833Y-110020331D01*
X119856833Y-110020331D02*
X119761595Y-110020331D01*
X119761595Y-110020331D02*
X119666357Y-110067950D01*
X119666357Y-110067950D02*
X119618738Y-110115569D01*
X119618738Y-110115569D02*
X119571119Y-110210807D01*
X119571119Y-110210807D02*
X119571119Y-110448902D01*
X119571119Y-110448902D02*
X119618738Y-110591759D01*
X120666357Y-110782236D02*
X120666357Y-111544140D01*
X120571119Y-111782236D02*
X119571119Y-111782236D01*
X120047309Y-111782236D02*
X120047309Y-112353664D01*
X120571119Y-112353664D02*
X119571119Y-112353664D01*
D10*
X118445342Y-98796224D02*
X117245342Y-98796224D01*
X117188200Y-100224796D02*
X118731057Y-99196224D01*
X117245342Y-100853367D02*
X117245342Y-101081939D01*
X117245342Y-101081939D02*
X117302485Y-101196224D01*
X117302485Y-101196224D02*
X117416771Y-101310510D01*
X117416771Y-101310510D02*
X117645342Y-101367653D01*
X117645342Y-101367653D02*
X118045342Y-101367653D01*
X118045342Y-101367653D02*
X118273914Y-101310510D01*
X118273914Y-101310510D02*
X118388200Y-101196224D01*
X118388200Y-101196224D02*
X118445342Y-101081939D01*
X118445342Y-101081939D02*
X118445342Y-100853367D01*
X118445342Y-100853367D02*
X118388200Y-100739082D01*
X118388200Y-100739082D02*
X118273914Y-100624796D01*
X118273914Y-100624796D02*
X118045342Y-100567653D01*
X118045342Y-100567653D02*
X117645342Y-100567653D01*
X117645342Y-100567653D02*
X117416771Y-100624796D01*
X117416771Y-100624796D02*
X117302485Y-100739082D01*
X117302485Y-100739082D02*
X117245342Y-100853367D01*
X118445342Y-103424796D02*
X118445342Y-102739082D01*
X118445342Y-103081939D02*
X117245342Y-103081939D01*
X117245342Y-103081939D02*
X117416771Y-102967653D01*
X117416771Y-102967653D02*
X117531057Y-102853368D01*
X117531057Y-102853368D02*
X117588200Y-102739082D01*
D13*
X106023409Y-90873006D02*
X106071028Y-91015863D01*
X106071028Y-91015863D02*
X106118647Y-91063482D01*
X106118647Y-91063482D02*
X106213885Y-91111101D01*
X106213885Y-91111101D02*
X106356742Y-91111101D01*
X106356742Y-91111101D02*
X106451980Y-91063482D01*
X106451980Y-91063482D02*
X106499600Y-91015863D01*
X106499600Y-91015863D02*
X106547219Y-90920625D01*
X106547219Y-90920625D02*
X106547219Y-90539673D01*
X106547219Y-90539673D02*
X105547219Y-90539673D01*
X105547219Y-90539673D02*
X105547219Y-90873006D01*
X105547219Y-90873006D02*
X105594838Y-90968244D01*
X105594838Y-90968244D02*
X105642457Y-91015863D01*
X105642457Y-91015863D02*
X105737695Y-91063482D01*
X105737695Y-91063482D02*
X105832933Y-91063482D01*
X105832933Y-91063482D02*
X105928171Y-91015863D01*
X105928171Y-91015863D02*
X105975790Y-90968244D01*
X105975790Y-90968244D02*
X106023409Y-90873006D01*
X106023409Y-90873006D02*
X106023409Y-90539673D01*
X105880552Y-91444435D02*
X106547219Y-91682530D01*
X105880552Y-91920625D02*
X106547219Y-91682530D01*
X106547219Y-91682530D02*
X106785314Y-91587292D01*
X106785314Y-91587292D02*
X106832933Y-91539673D01*
X106832933Y-91539673D02*
X106880552Y-91444435D01*
X105547219Y-92920626D02*
X105547219Y-93492054D01*
X106547219Y-93206340D02*
X105547219Y-93206340D01*
X106547219Y-93825388D02*
X105547219Y-93825388D01*
X106547219Y-94253959D02*
X106023409Y-94253959D01*
X106023409Y-94253959D02*
X105928171Y-94206340D01*
X105928171Y-94206340D02*
X105880552Y-94111102D01*
X105880552Y-94111102D02*
X105880552Y-93968245D01*
X105880552Y-93968245D02*
X105928171Y-93873007D01*
X105928171Y-93873007D02*
X105975790Y-93825388D01*
X106547219Y-94730150D02*
X105880552Y-94730150D01*
X105547219Y-94730150D02*
X105594838Y-94682531D01*
X105594838Y-94682531D02*
X105642457Y-94730150D01*
X105642457Y-94730150D02*
X105594838Y-94777769D01*
X105594838Y-94777769D02*
X105547219Y-94730150D01*
X105547219Y-94730150D02*
X105642457Y-94730150D01*
X105880552Y-95206340D02*
X106547219Y-95206340D01*
X105975790Y-95206340D02*
X105928171Y-95253959D01*
X105928171Y-95253959D02*
X105880552Y-95349197D01*
X105880552Y-95349197D02*
X105880552Y-95492054D01*
X105880552Y-95492054D02*
X105928171Y-95587292D01*
X105928171Y-95587292D02*
X106023409Y-95634911D01*
X106023409Y-95634911D02*
X106547219Y-95634911D01*
X105880552Y-96539673D02*
X106690076Y-96539673D01*
X106690076Y-96539673D02*
X106785314Y-96492054D01*
X106785314Y-96492054D02*
X106832933Y-96444435D01*
X106832933Y-96444435D02*
X106880552Y-96349197D01*
X106880552Y-96349197D02*
X106880552Y-96206340D01*
X106880552Y-96206340D02*
X106832933Y-96111102D01*
X106499600Y-96539673D02*
X106547219Y-96444435D01*
X106547219Y-96444435D02*
X106547219Y-96253959D01*
X106547219Y-96253959D02*
X106499600Y-96158721D01*
X106499600Y-96158721D02*
X106451980Y-96111102D01*
X106451980Y-96111102D02*
X106356742Y-96063483D01*
X106356742Y-96063483D02*
X106071028Y-96063483D01*
X106071028Y-96063483D02*
X105975790Y-96111102D01*
X105975790Y-96111102D02*
X105928171Y-96158721D01*
X105928171Y-96158721D02*
X105880552Y-96253959D01*
X105880552Y-96253959D02*
X105880552Y-96444435D01*
X105880552Y-96444435D02*
X105928171Y-96539673D01*
X106547219Y-97015864D02*
X105880552Y-97015864D01*
X105547219Y-97015864D02*
X105594838Y-96968245D01*
X105594838Y-96968245D02*
X105642457Y-97015864D01*
X105642457Y-97015864D02*
X105594838Y-97063483D01*
X105594838Y-97063483D02*
X105547219Y-97015864D01*
X105547219Y-97015864D02*
X105642457Y-97015864D01*
X105880552Y-97492054D02*
X106547219Y-97492054D01*
X105975790Y-97492054D02*
X105928171Y-97539673D01*
X105928171Y-97539673D02*
X105880552Y-97634911D01*
X105880552Y-97634911D02*
X105880552Y-97777768D01*
X105880552Y-97777768D02*
X105928171Y-97873006D01*
X105928171Y-97873006D02*
X106023409Y-97920625D01*
X106023409Y-97920625D02*
X106547219Y-97920625D01*
X105880552Y-98396816D02*
X106547219Y-98396816D01*
X105975790Y-98396816D02*
X105928171Y-98444435D01*
X105928171Y-98444435D02*
X105880552Y-98539673D01*
X105880552Y-98539673D02*
X105880552Y-98682530D01*
X105880552Y-98682530D02*
X105928171Y-98777768D01*
X105928171Y-98777768D02*
X106023409Y-98825387D01*
X106023409Y-98825387D02*
X106547219Y-98825387D01*
X106547219Y-99444435D02*
X106499600Y-99349197D01*
X106499600Y-99349197D02*
X106451980Y-99301578D01*
X106451980Y-99301578D02*
X106356742Y-99253959D01*
X106356742Y-99253959D02*
X106071028Y-99253959D01*
X106071028Y-99253959D02*
X105975790Y-99301578D01*
X105975790Y-99301578D02*
X105928171Y-99349197D01*
X105928171Y-99349197D02*
X105880552Y-99444435D01*
X105880552Y-99444435D02*
X105880552Y-99587292D01*
X105880552Y-99587292D02*
X105928171Y-99682530D01*
X105928171Y-99682530D02*
X105975790Y-99730149D01*
X105975790Y-99730149D02*
X106071028Y-99777768D01*
X106071028Y-99777768D02*
X106356742Y-99777768D01*
X106356742Y-99777768D02*
X106451980Y-99730149D01*
X106451980Y-99730149D02*
X106499600Y-99682530D01*
X106499600Y-99682530D02*
X106547219Y-99587292D01*
X106547219Y-99587292D02*
X106547219Y-99444435D01*
X105880552Y-100111102D02*
X106547219Y-100349197D01*
X106547219Y-100349197D02*
X105880552Y-100587292D01*
X106547219Y-101396816D02*
X106023409Y-101396816D01*
X106023409Y-101396816D02*
X105928171Y-101349197D01*
X105928171Y-101349197D02*
X105880552Y-101253959D01*
X105880552Y-101253959D02*
X105880552Y-101063483D01*
X105880552Y-101063483D02*
X105928171Y-100968245D01*
X106499600Y-101396816D02*
X106547219Y-101301578D01*
X106547219Y-101301578D02*
X106547219Y-101063483D01*
X106547219Y-101063483D02*
X106499600Y-100968245D01*
X106499600Y-100968245D02*
X106404361Y-100920626D01*
X106404361Y-100920626D02*
X106309123Y-100920626D01*
X106309123Y-100920626D02*
X106213885Y-100968245D01*
X106213885Y-100968245D02*
X106166266Y-101063483D01*
X106166266Y-101063483D02*
X106166266Y-101301578D01*
X106166266Y-101301578D02*
X106118647Y-101396816D01*
X105880552Y-101730150D02*
X105880552Y-102111102D01*
X105547219Y-101873007D02*
X106404361Y-101873007D01*
X106404361Y-101873007D02*
X106499600Y-101920626D01*
X106499600Y-101920626D02*
X106547219Y-102015864D01*
X106547219Y-102015864D02*
X106547219Y-102111102D01*
X106547219Y-102444436D02*
X105880552Y-102444436D01*
X105547219Y-102444436D02*
X105594838Y-102396817D01*
X105594838Y-102396817D02*
X105642457Y-102444436D01*
X105642457Y-102444436D02*
X105594838Y-102492055D01*
X105594838Y-102492055D02*
X105547219Y-102444436D01*
X105547219Y-102444436D02*
X105642457Y-102444436D01*
X106547219Y-103063483D02*
X106499600Y-102968245D01*
X106499600Y-102968245D02*
X106451980Y-102920626D01*
X106451980Y-102920626D02*
X106356742Y-102873007D01*
X106356742Y-102873007D02*
X106071028Y-102873007D01*
X106071028Y-102873007D02*
X105975790Y-102920626D01*
X105975790Y-102920626D02*
X105928171Y-102968245D01*
X105928171Y-102968245D02*
X105880552Y-103063483D01*
X105880552Y-103063483D02*
X105880552Y-103206340D01*
X105880552Y-103206340D02*
X105928171Y-103301578D01*
X105928171Y-103301578D02*
X105975790Y-103349197D01*
X105975790Y-103349197D02*
X106071028Y-103396816D01*
X106071028Y-103396816D02*
X106356742Y-103396816D01*
X106356742Y-103396816D02*
X106451980Y-103349197D01*
X106451980Y-103349197D02*
X106499600Y-103301578D01*
X106499600Y-103301578D02*
X106547219Y-103206340D01*
X106547219Y-103206340D02*
X106547219Y-103063483D01*
X105880552Y-103825388D02*
X106547219Y-103825388D01*
X105975790Y-103825388D02*
X105928171Y-103873007D01*
X105928171Y-103873007D02*
X105880552Y-103968245D01*
X105880552Y-103968245D02*
X105880552Y-104111102D01*
X105880552Y-104111102D02*
X105928171Y-104206340D01*
X105928171Y-104206340D02*
X106023409Y-104253959D01*
X106023409Y-104253959D02*
X106547219Y-104253959D01*
X106499600Y-104682531D02*
X106547219Y-104777769D01*
X106547219Y-104777769D02*
X106547219Y-104968245D01*
X106547219Y-104968245D02*
X106499600Y-105063483D01*
X106499600Y-105063483D02*
X106404361Y-105111102D01*
X106404361Y-105111102D02*
X106356742Y-105111102D01*
X106356742Y-105111102D02*
X106261504Y-105063483D01*
X106261504Y-105063483D02*
X106213885Y-104968245D01*
X106213885Y-104968245D02*
X106213885Y-104825388D01*
X106213885Y-104825388D02*
X106166266Y-104730150D01*
X106166266Y-104730150D02*
X106071028Y-104682531D01*
X106071028Y-104682531D02*
X106023409Y-104682531D01*
X106023409Y-104682531D02*
X105928171Y-104730150D01*
X105928171Y-104730150D02*
X105880552Y-104825388D01*
X105880552Y-104825388D02*
X105880552Y-104968245D01*
X105880552Y-104968245D02*
X105928171Y-105063483D01*
X106499600Y-105587293D02*
X106547219Y-105587293D01*
X106547219Y-105587293D02*
X106642457Y-105539674D01*
X106642457Y-105539674D02*
X106690076Y-105492055D01*
X105642457Y-106730150D02*
X105594838Y-106777769D01*
X105594838Y-106777769D02*
X105547219Y-106873007D01*
X105547219Y-106873007D02*
X105547219Y-107111102D01*
X105547219Y-107111102D02*
X105594838Y-107206340D01*
X105594838Y-107206340D02*
X105642457Y-107253959D01*
X105642457Y-107253959D02*
X105737695Y-107301578D01*
X105737695Y-107301578D02*
X105832933Y-107301578D01*
X105832933Y-107301578D02*
X105975790Y-107253959D01*
X105975790Y-107253959D02*
X106547219Y-106682531D01*
X106547219Y-106682531D02*
X106547219Y-107301578D01*
X105547219Y-107920626D02*
X105547219Y-108015864D01*
X105547219Y-108015864D02*
X105594838Y-108111102D01*
X105594838Y-108111102D02*
X105642457Y-108158721D01*
X105642457Y-108158721D02*
X105737695Y-108206340D01*
X105737695Y-108206340D02*
X105928171Y-108253959D01*
X105928171Y-108253959D02*
X106166266Y-108253959D01*
X106166266Y-108253959D02*
X106356742Y-108206340D01*
X106356742Y-108206340D02*
X106451980Y-108158721D01*
X106451980Y-108158721D02*
X106499600Y-108111102D01*
X106499600Y-108111102D02*
X106547219Y-108015864D01*
X106547219Y-108015864D02*
X106547219Y-107920626D01*
X106547219Y-107920626D02*
X106499600Y-107825388D01*
X106499600Y-107825388D02*
X106451980Y-107777769D01*
X106451980Y-107777769D02*
X106356742Y-107730150D01*
X106356742Y-107730150D02*
X106166266Y-107682531D01*
X106166266Y-107682531D02*
X105928171Y-107682531D01*
X105928171Y-107682531D02*
X105737695Y-107730150D01*
X105737695Y-107730150D02*
X105642457Y-107777769D01*
X105642457Y-107777769D02*
X105594838Y-107825388D01*
X105594838Y-107825388D02*
X105547219Y-107920626D01*
X105642457Y-108634912D02*
X105594838Y-108682531D01*
X105594838Y-108682531D02*
X105547219Y-108777769D01*
X105547219Y-108777769D02*
X105547219Y-109015864D01*
X105547219Y-109015864D02*
X105594838Y-109111102D01*
X105594838Y-109111102D02*
X105642457Y-109158721D01*
X105642457Y-109158721D02*
X105737695Y-109206340D01*
X105737695Y-109206340D02*
X105832933Y-109206340D01*
X105832933Y-109206340D02*
X105975790Y-109158721D01*
X105975790Y-109158721D02*
X106547219Y-108587293D01*
X106547219Y-108587293D02*
X106547219Y-109206340D01*
X105547219Y-110063483D02*
X105547219Y-109873007D01*
X105547219Y-109873007D02*
X105594838Y-109777769D01*
X105594838Y-109777769D02*
X105642457Y-109730150D01*
X105642457Y-109730150D02*
X105785314Y-109634912D01*
X105785314Y-109634912D02*
X105975790Y-109587293D01*
X105975790Y-109587293D02*
X106356742Y-109587293D01*
X106356742Y-109587293D02*
X106451980Y-109634912D01*
X106451980Y-109634912D02*
X106499600Y-109682531D01*
X106499600Y-109682531D02*
X106547219Y-109777769D01*
X106547219Y-109777769D02*
X106547219Y-109968245D01*
X106547219Y-109968245D02*
X106499600Y-110063483D01*
X106499600Y-110063483D02*
X106451980Y-110111102D01*
X106451980Y-110111102D02*
X106356742Y-110158721D01*
X106356742Y-110158721D02*
X106118647Y-110158721D01*
X106118647Y-110158721D02*
X106023409Y-110111102D01*
X106023409Y-110111102D02*
X105975790Y-110063483D01*
X105975790Y-110063483D02*
X105928171Y-109968245D01*
X105928171Y-109968245D02*
X105928171Y-109777769D01*
X105928171Y-109777769D02*
X105975790Y-109682531D01*
X105975790Y-109682531D02*
X106023409Y-109634912D01*
X106023409Y-109634912D02*
X106118647Y-109587293D01*
X106451980Y-110587293D02*
X106499600Y-110634912D01*
X106499600Y-110634912D02*
X106547219Y-110587293D01*
X106547219Y-110587293D02*
X106499600Y-110539674D01*
X106499600Y-110539674D02*
X106451980Y-110587293D01*
X106451980Y-110587293D02*
X106547219Y-110587293D01*
D11*
X120571119Y-100920331D02*
X119571119Y-100920331D01*
X120047309Y-100920331D02*
X120047309Y-101491759D01*
X120571119Y-101491759D02*
X119571119Y-101491759D01*
X120523500Y-101920331D02*
X120571119Y-102063188D01*
X120571119Y-102063188D02*
X120571119Y-102301283D01*
X120571119Y-102301283D02*
X120523500Y-102396521D01*
X120523500Y-102396521D02*
X120475880Y-102444140D01*
X120475880Y-102444140D02*
X120380642Y-102491759D01*
X120380642Y-102491759D02*
X120285404Y-102491759D01*
X120285404Y-102491759D02*
X120190166Y-102444140D01*
X120190166Y-102444140D02*
X120142547Y-102396521D01*
X120142547Y-102396521D02*
X120094928Y-102301283D01*
X120094928Y-102301283D02*
X120047309Y-102110807D01*
X120047309Y-102110807D02*
X119999690Y-102015569D01*
X119999690Y-102015569D02*
X119952071Y-101967950D01*
X119952071Y-101967950D02*
X119856833Y-101920331D01*
X119856833Y-101920331D02*
X119761595Y-101920331D01*
X119761595Y-101920331D02*
X119666357Y-101967950D01*
X119666357Y-101967950D02*
X119618738Y-102015569D01*
X119618738Y-102015569D02*
X119571119Y-102110807D01*
X119571119Y-102110807D02*
X119571119Y-102348902D01*
X119571119Y-102348902D02*
X119618738Y-102491759D01*
X120666357Y-102682236D02*
X120666357Y-103444140D01*
X120047309Y-104015569D02*
X120047309Y-103682236D01*
X120571119Y-103682236D02*
X119571119Y-103682236D01*
X119571119Y-103682236D02*
X119571119Y-104158426D01*
X125618738Y-101444140D02*
X125571119Y-101348902D01*
X125571119Y-101348902D02*
X125571119Y-101206045D01*
X125571119Y-101206045D02*
X125618738Y-101063188D01*
X125618738Y-101063188D02*
X125713976Y-100967950D01*
X125713976Y-100967950D02*
X125809214Y-100920331D01*
X125809214Y-100920331D02*
X125999690Y-100872712D01*
X125999690Y-100872712D02*
X126142547Y-100872712D01*
X126142547Y-100872712D02*
X126333023Y-100920331D01*
X126333023Y-100920331D02*
X126428261Y-100967950D01*
X126428261Y-100967950D02*
X126523500Y-101063188D01*
X126523500Y-101063188D02*
X126571119Y-101206045D01*
X126571119Y-101206045D02*
X126571119Y-101301283D01*
X126571119Y-101301283D02*
X126523500Y-101444140D01*
X126523500Y-101444140D02*
X126475880Y-101491759D01*
X126475880Y-101491759D02*
X126142547Y-101491759D01*
X126142547Y-101491759D02*
X126142547Y-101301283D01*
X126571119Y-101920331D02*
X125571119Y-101920331D01*
X125571119Y-101920331D02*
X126571119Y-102491759D01*
X126571119Y-102491759D02*
X125571119Y-102491759D01*
X126571119Y-102967950D02*
X125571119Y-102967950D01*
X125571119Y-102967950D02*
X125571119Y-103206045D01*
X125571119Y-103206045D02*
X125618738Y-103348902D01*
X125618738Y-103348902D02*
X125713976Y-103444140D01*
X125713976Y-103444140D02*
X125809214Y-103491759D01*
X125809214Y-103491759D02*
X125999690Y-103539378D01*
X125999690Y-103539378D02*
X126142547Y-103539378D01*
X126142547Y-103539378D02*
X126333023Y-103491759D01*
X126333023Y-103491759D02*
X126428261Y-103444140D01*
X126428261Y-103444140D02*
X126523500Y-103348902D01*
X126523500Y-103348902D02*
X126571119Y-103206045D01*
X126571119Y-103206045D02*
X126571119Y-102967950D01*
X125618738Y-93444140D02*
X125571119Y-93348902D01*
X125571119Y-93348902D02*
X125571119Y-93206045D01*
X125571119Y-93206045D02*
X125618738Y-93063188D01*
X125618738Y-93063188D02*
X125713976Y-92967950D01*
X125713976Y-92967950D02*
X125809214Y-92920331D01*
X125809214Y-92920331D02*
X125999690Y-92872712D01*
X125999690Y-92872712D02*
X126142547Y-92872712D01*
X126142547Y-92872712D02*
X126333023Y-92920331D01*
X126333023Y-92920331D02*
X126428261Y-92967950D01*
X126428261Y-92967950D02*
X126523500Y-93063188D01*
X126523500Y-93063188D02*
X126571119Y-93206045D01*
X126571119Y-93206045D02*
X126571119Y-93301283D01*
X126571119Y-93301283D02*
X126523500Y-93444140D01*
X126523500Y-93444140D02*
X126475880Y-93491759D01*
X126475880Y-93491759D02*
X126142547Y-93491759D01*
X126142547Y-93491759D02*
X126142547Y-93301283D01*
X126571119Y-93920331D02*
X125571119Y-93920331D01*
X125571119Y-93920331D02*
X126571119Y-94491759D01*
X126571119Y-94491759D02*
X125571119Y-94491759D01*
X126571119Y-94967950D02*
X125571119Y-94967950D01*
X125571119Y-94967950D02*
X125571119Y-95206045D01*
X125571119Y-95206045D02*
X125618738Y-95348902D01*
X125618738Y-95348902D02*
X125713976Y-95444140D01*
X125713976Y-95444140D02*
X125809214Y-95491759D01*
X125809214Y-95491759D02*
X125999690Y-95539378D01*
X125999690Y-95539378D02*
X126142547Y-95539378D01*
X126142547Y-95539378D02*
X126333023Y-95491759D01*
X126333023Y-95491759D02*
X126428261Y-95444140D01*
X126428261Y-95444140D02*
X126523500Y-95348902D01*
X126523500Y-95348902D02*
X126571119Y-95206045D01*
X126571119Y-95206045D02*
X126571119Y-94967950D01*
X120523500Y-92872712D02*
X120571119Y-93015569D01*
X120571119Y-93015569D02*
X120571119Y-93253664D01*
X120571119Y-93253664D02*
X120523500Y-93348902D01*
X120523500Y-93348902D02*
X120475880Y-93396521D01*
X120475880Y-93396521D02*
X120380642Y-93444140D01*
X120380642Y-93444140D02*
X120285404Y-93444140D01*
X120285404Y-93444140D02*
X120190166Y-93396521D01*
X120190166Y-93396521D02*
X120142547Y-93348902D01*
X120142547Y-93348902D02*
X120094928Y-93253664D01*
X120094928Y-93253664D02*
X120047309Y-93063188D01*
X120047309Y-93063188D02*
X119999690Y-92967950D01*
X119999690Y-92967950D02*
X119952071Y-92920331D01*
X119952071Y-92920331D02*
X119856833Y-92872712D01*
X119856833Y-92872712D02*
X119761595Y-92872712D01*
X119761595Y-92872712D02*
X119666357Y-92920331D01*
X119666357Y-92920331D02*
X119618738Y-92967950D01*
X119618738Y-92967950D02*
X119571119Y-93063188D01*
X119571119Y-93063188D02*
X119571119Y-93301283D01*
X119571119Y-93301283D02*
X119618738Y-93444140D01*
X120475880Y-94444140D02*
X120523500Y-94396521D01*
X120523500Y-94396521D02*
X120571119Y-94253664D01*
X120571119Y-94253664D02*
X120571119Y-94158426D01*
X120571119Y-94158426D02*
X120523500Y-94015569D01*
X120523500Y-94015569D02*
X120428261Y-93920331D01*
X120428261Y-93920331D02*
X120333023Y-93872712D01*
X120333023Y-93872712D02*
X120142547Y-93825093D01*
X120142547Y-93825093D02*
X119999690Y-93825093D01*
X119999690Y-93825093D02*
X119809214Y-93872712D01*
X119809214Y-93872712D02*
X119713976Y-93920331D01*
X119713976Y-93920331D02*
X119618738Y-94015569D01*
X119618738Y-94015569D02*
X119571119Y-94158426D01*
X119571119Y-94158426D02*
X119571119Y-94253664D01*
X119571119Y-94253664D02*
X119618738Y-94396521D01*
X119618738Y-94396521D02*
X119666357Y-94444140D01*
X120571119Y-95348902D02*
X120571119Y-94872712D01*
X120571119Y-94872712D02*
X119571119Y-94872712D01*
X122571119Y-100920331D02*
X121571119Y-100920331D01*
X122047309Y-100920331D02*
X122047309Y-101491759D01*
X122571119Y-101491759D02*
X121571119Y-101491759D01*
X122523500Y-101920331D02*
X122571119Y-102063188D01*
X122571119Y-102063188D02*
X122571119Y-102301283D01*
X122571119Y-102301283D02*
X122523500Y-102396521D01*
X122523500Y-102396521D02*
X122475880Y-102444140D01*
X122475880Y-102444140D02*
X122380642Y-102491759D01*
X122380642Y-102491759D02*
X122285404Y-102491759D01*
X122285404Y-102491759D02*
X122190166Y-102444140D01*
X122190166Y-102444140D02*
X122142547Y-102396521D01*
X122142547Y-102396521D02*
X122094928Y-102301283D01*
X122094928Y-102301283D02*
X122047309Y-102110807D01*
X122047309Y-102110807D02*
X121999690Y-102015569D01*
X121999690Y-102015569D02*
X121952071Y-101967950D01*
X121952071Y-101967950D02*
X121856833Y-101920331D01*
X121856833Y-101920331D02*
X121761595Y-101920331D01*
X121761595Y-101920331D02*
X121666357Y-101967950D01*
X121666357Y-101967950D02*
X121618738Y-102015569D01*
X121618738Y-102015569D02*
X121571119Y-102110807D01*
X121571119Y-102110807D02*
X121571119Y-102348902D01*
X121571119Y-102348902D02*
X121618738Y-102491759D01*
X122666357Y-102682236D02*
X122666357Y-103444140D01*
X121618738Y-104206045D02*
X121571119Y-104110807D01*
X121571119Y-104110807D02*
X121571119Y-103967950D01*
X121571119Y-103967950D02*
X121618738Y-103825093D01*
X121618738Y-103825093D02*
X121713976Y-103729855D01*
X121713976Y-103729855D02*
X121809214Y-103682236D01*
X121809214Y-103682236D02*
X121999690Y-103634617D01*
X121999690Y-103634617D02*
X122142547Y-103634617D01*
X122142547Y-103634617D02*
X122333023Y-103682236D01*
X122333023Y-103682236D02*
X122428261Y-103729855D01*
X122428261Y-103729855D02*
X122523500Y-103825093D01*
X122523500Y-103825093D02*
X122571119Y-103967950D01*
X122571119Y-103967950D02*
X122571119Y-104063188D01*
X122571119Y-104063188D02*
X122523500Y-104206045D01*
X122523500Y-104206045D02*
X122475880Y-104253664D01*
X122475880Y-104253664D02*
X122142547Y-104253664D01*
X122142547Y-104253664D02*
X122142547Y-104063188D01*
X122571119Y-109020331D02*
X121571119Y-109020331D01*
X122047309Y-109020331D02*
X122047309Y-109591759D01*
X122571119Y-109591759D02*
X121571119Y-109591759D01*
X122523500Y-110020331D02*
X122571119Y-110163188D01*
X122571119Y-110163188D02*
X122571119Y-110401283D01*
X122571119Y-110401283D02*
X122523500Y-110496521D01*
X122523500Y-110496521D02*
X122475880Y-110544140D01*
X122475880Y-110544140D02*
X122380642Y-110591759D01*
X122380642Y-110591759D02*
X122285404Y-110591759D01*
X122285404Y-110591759D02*
X122190166Y-110544140D01*
X122190166Y-110544140D02*
X122142547Y-110496521D01*
X122142547Y-110496521D02*
X122094928Y-110401283D01*
X122094928Y-110401283D02*
X122047309Y-110210807D01*
X122047309Y-110210807D02*
X121999690Y-110115569D01*
X121999690Y-110115569D02*
X121952071Y-110067950D01*
X121952071Y-110067950D02*
X121856833Y-110020331D01*
X121856833Y-110020331D02*
X121761595Y-110020331D01*
X121761595Y-110020331D02*
X121666357Y-110067950D01*
X121666357Y-110067950D02*
X121618738Y-110115569D01*
X121618738Y-110115569D02*
X121571119Y-110210807D01*
X121571119Y-110210807D02*
X121571119Y-110448902D01*
X121571119Y-110448902D02*
X121618738Y-110591759D01*
X122666357Y-110782236D02*
X122666357Y-111544140D01*
X122571119Y-111782236D02*
X121571119Y-111782236D01*
D10*
X118445342Y-91384398D02*
X117245342Y-91384398D01*
X117359628Y-91898684D02*
X117302485Y-91955827D01*
X117302485Y-91955827D02*
X117245342Y-92070113D01*
X117245342Y-92070113D02*
X117245342Y-92355827D01*
X117245342Y-92355827D02*
X117302485Y-92470113D01*
X117302485Y-92470113D02*
X117359628Y-92527255D01*
X117359628Y-92527255D02*
X117473914Y-92584398D01*
X117473914Y-92584398D02*
X117588200Y-92584398D01*
X117588200Y-92584398D02*
X117759628Y-92527255D01*
X117759628Y-92527255D02*
X118445342Y-91841541D01*
X118445342Y-91841541D02*
X118445342Y-92584398D01*
X118331057Y-93784398D02*
X118388200Y-93727255D01*
X118388200Y-93727255D02*
X118445342Y-93555827D01*
X118445342Y-93555827D02*
X118445342Y-93441541D01*
X118445342Y-93441541D02*
X118388200Y-93270112D01*
X118388200Y-93270112D02*
X118273914Y-93155827D01*
X118273914Y-93155827D02*
X118159628Y-93098684D01*
X118159628Y-93098684D02*
X117931057Y-93041541D01*
X117931057Y-93041541D02*
X117759628Y-93041541D01*
X117759628Y-93041541D02*
X117531057Y-93098684D01*
X117531057Y-93098684D02*
X117416771Y-93155827D01*
X117416771Y-93155827D02*
X117302485Y-93270112D01*
X117302485Y-93270112D02*
X117245342Y-93441541D01*
X117245342Y-93441541D02*
X117245342Y-93555827D01*
X117245342Y-93555827D02*
X117302485Y-93727255D01*
X117302485Y-93727255D02*
X117359628Y-93784398D01*
D14*
X103290809Y-96435901D02*
X103338428Y-96578758D01*
X103338428Y-96578758D02*
X103386047Y-96626377D01*
X103386047Y-96626377D02*
X103481285Y-96673996D01*
X103481285Y-96673996D02*
X103624142Y-96673996D01*
X103624142Y-96673996D02*
X103719380Y-96626377D01*
X103719380Y-96626377D02*
X103767000Y-96578758D01*
X103767000Y-96578758D02*
X103814619Y-96483520D01*
X103814619Y-96483520D02*
X103814619Y-96102568D01*
X103814619Y-96102568D02*
X102814619Y-96102568D01*
X102814619Y-96102568D02*
X102814619Y-96435901D01*
X102814619Y-96435901D02*
X102862238Y-96531139D01*
X102862238Y-96531139D02*
X102909857Y-96578758D01*
X102909857Y-96578758D02*
X103005095Y-96626377D01*
X103005095Y-96626377D02*
X103100333Y-96626377D01*
X103100333Y-96626377D02*
X103195571Y-96578758D01*
X103195571Y-96578758D02*
X103243190Y-96531139D01*
X103243190Y-96531139D02*
X103290809Y-96435901D01*
X103290809Y-96435901D02*
X103290809Y-96102568D01*
X102814619Y-97293044D02*
X102814619Y-97483520D01*
X102814619Y-97483520D02*
X102862238Y-97578758D01*
X102862238Y-97578758D02*
X102957476Y-97673996D01*
X102957476Y-97673996D02*
X103147952Y-97721615D01*
X103147952Y-97721615D02*
X103481285Y-97721615D01*
X103481285Y-97721615D02*
X103671761Y-97673996D01*
X103671761Y-97673996D02*
X103767000Y-97578758D01*
X103767000Y-97578758D02*
X103814619Y-97483520D01*
X103814619Y-97483520D02*
X103814619Y-97293044D01*
X103814619Y-97293044D02*
X103767000Y-97197806D01*
X103767000Y-97197806D02*
X103671761Y-97102568D01*
X103671761Y-97102568D02*
X103481285Y-97054949D01*
X103481285Y-97054949D02*
X103147952Y-97054949D01*
X103147952Y-97054949D02*
X102957476Y-97102568D01*
X102957476Y-97102568D02*
X102862238Y-97197806D01*
X102862238Y-97197806D02*
X102814619Y-97293044D01*
X102814619Y-98007330D02*
X102814619Y-98578758D01*
X103814619Y-98293044D02*
X102814619Y-98293044D01*
X102814619Y-98769235D02*
X102814619Y-99340663D01*
X103814619Y-99054949D02*
X102814619Y-99054949D01*
X102814619Y-99864473D02*
X102814619Y-100054949D01*
X102814619Y-100054949D02*
X102862238Y-100150187D01*
X102862238Y-100150187D02*
X102957476Y-100245425D01*
X102957476Y-100245425D02*
X103147952Y-100293044D01*
X103147952Y-100293044D02*
X103481285Y-100293044D01*
X103481285Y-100293044D02*
X103671761Y-100245425D01*
X103671761Y-100245425D02*
X103767000Y-100150187D01*
X103767000Y-100150187D02*
X103814619Y-100054949D01*
X103814619Y-100054949D02*
X103814619Y-99864473D01*
X103814619Y-99864473D02*
X103767000Y-99769235D01*
X103767000Y-99769235D02*
X103671761Y-99673997D01*
X103671761Y-99673997D02*
X103481285Y-99626378D01*
X103481285Y-99626378D02*
X103147952Y-99626378D01*
X103147952Y-99626378D02*
X102957476Y-99673997D01*
X102957476Y-99673997D02*
X102862238Y-99769235D01*
X102862238Y-99769235D02*
X102814619Y-99864473D01*
X103814619Y-100721616D02*
X102814619Y-100721616D01*
X102814619Y-100721616D02*
X103528904Y-101054949D01*
X103528904Y-101054949D02*
X102814619Y-101388282D01*
X102814619Y-101388282D02*
X103814619Y-101388282D01*
X103719380Y-101864473D02*
X103767000Y-101912092D01*
X103767000Y-101912092D02*
X103814619Y-101864473D01*
X103814619Y-101864473D02*
X103767000Y-101816854D01*
X103767000Y-101816854D02*
X103719380Y-101864473D01*
X103719380Y-101864473D02*
X103814619Y-101864473D01*
X103433666Y-101864473D02*
X102862238Y-101816854D01*
X102862238Y-101816854D02*
X102814619Y-101864473D01*
X102814619Y-101864473D02*
X102862238Y-101912092D01*
X102862238Y-101912092D02*
X103433666Y-101864473D01*
X103433666Y-101864473D02*
X102814619Y-101864473D01*
D13*
X103341695Y-103791101D02*
X103341695Y-103333958D01*
X103341695Y-103562530D02*
X102541695Y-103562530D01*
X102541695Y-103562530D02*
X102655980Y-103486339D01*
X102655980Y-103486339D02*
X102732171Y-103410149D01*
X102732171Y-103410149D02*
X102770266Y-103333958D01*
D15*
%TO.C,JP1*%
X107820000Y-97490000D02*
X107820000Y-98090000D01*
X108520000Y-98790000D02*
X109920000Y-98790000D01*
X109920000Y-96790000D02*
X108520000Y-96790000D01*
X110620000Y-98090000D02*
X110620000Y-97490000D01*
X107820000Y-97490000D02*
G75*
G02*
X108520000Y-96790000I699999J1D01*
G01*
X108520000Y-98790000D02*
G75*
G02*
X107820000Y-98090000I-1J699999D01*
G01*
X109920000Y-96790000D02*
G75*
G02*
X110620000Y-97490000I0J-700000D01*
G01*
X110620000Y-98090000D02*
G75*
G02*
X109920000Y-98790000I-700000J0D01*
G01*
%TD*%
%LPC*%
D16*
%TO.C,J1*%
X100500000Y-103400000D03*
D17*
X100900000Y-102600000D03*
X100900000Y-101800000D03*
X100900000Y-101000000D03*
X100900000Y-100200000D03*
X100900000Y-99400000D03*
X100900000Y-98600000D03*
X100900000Y-97800000D03*
D16*
X100500000Y-97000000D03*
X100500000Y-96200000D03*
%TD*%
D18*
%TO.C,H2*%
X110850000Y-87500000D03*
X111333274Y-86333274D03*
X111333274Y-88666726D03*
X112500000Y-85850000D03*
D19*
X112500000Y-87500000D03*
D18*
X112500000Y-89150000D03*
X113666726Y-86333274D03*
X113666726Y-88666726D03*
X114150000Y-87500000D03*
%TD*%
D20*
%TO.C,J3*%
X120000000Y-99500000D03*
D21*
X122000000Y-99500000D03*
X124000000Y-99500000D03*
X126000000Y-99500000D03*
%TD*%
D20*
%TO.C,J2*%
X120000000Y-91500000D03*
D21*
X122000000Y-91500000D03*
X124000000Y-91500000D03*
X126000000Y-91500000D03*
%TD*%
D18*
%TO.C,H1*%
X110850000Y-112500000D03*
X111333274Y-111333274D03*
X111333274Y-113666726D03*
X112500000Y-110850000D03*
D19*
X112500000Y-112500000D03*
D18*
X112500000Y-114150000D03*
X113666726Y-111333274D03*
X113666726Y-113666726D03*
X114150000Y-112500000D03*
%TD*%
D20*
%TO.C,J4*%
X120000000Y-107500000D03*
D21*
X122000000Y-107500000D03*
X124000000Y-107500000D03*
X126000000Y-107500000D03*
%TD*%
D22*
%TO.C,JP1*%
X108570000Y-97790000D03*
D23*
X109870000Y-97790000D03*
%TD*%
%LPD*%
M02*
