%TF.GenerationSoftware,KiCad,Pcbnew,9.0.7*%
%TF.CreationDate,2026-03-21T21:19:46+00:00*%
%TF.ProjectId,hexpansion_grove,68657870-616e-4736-996f-6e5f67726f76,rev?*%
%TF.SameCoordinates,Original*%
%TF.FileFunction,Copper,L2,Bot*%
%TF.FilePolarity,Positive*%
%FSLAX46Y46*%
G04 Gerber Fmt 4.6, Leading zero omitted, Abs format (unit mm)*
G04 Created by KiCad (PCBNEW 9.0.7) date 2026-03-21 21:19:46*
%MOMM*%
%LPD*%
G01*
G04 APERTURE LIST*
G04 Aperture macros list*
%AMRoundRect*
0 Rectangle with rounded corners*
0 $1 Rounding radius*
0 $2 $3 $4 $5 $6 $7 $8 $9 X,Y pos of 4 corners*
0 Add a 4 corners polygon primitive as box body*
4,1,4,$2,$3,$4,$5,$6,$7,$8,$9,$2,$3,0*
0 Add four circle primitives for the rounded corners*
1,1,$1+$1,$2,$3*
1,1,$1+$1,$4,$5*
1,1,$1+$1,$6,$7*
1,1,$1+$1,$8,$9*
0 Add four rect primitives between the rounded corners*
20,1,$1+$1,$2,$3,$4,$5,0*
20,1,$1+$1,$4,$5,$6,$7,0*
20,1,$1+$1,$6,$7,$8,$9,0*
20,1,$1+$1,$8,$9,$2,$3,0*%
%AMFreePoly0*
4,1,23,0.500000,-0.750000,0.000000,-0.750000,0.000000,-0.745722,-0.065263,-0.745722,-0.191342,-0.711940,-0.304381,-0.646677,-0.396677,-0.554381,-0.461940,-0.441342,-0.495722,-0.315263,-0.495722,-0.250000,-0.500000,-0.250000,-0.500000,0.250000,-0.495722,0.250000,-0.495722,0.315263,-0.461940,0.441342,-0.396677,0.554381,-0.304381,0.646677,-0.191342,0.711940,-0.065263,0.745722,0.000000,0.745722,
0.000000,0.750000,0.500000,0.750000,0.500000,-0.750000,0.500000,-0.750000,$1*%
%AMFreePoly1*
4,1,23,0.000000,0.745722,0.065263,0.745722,0.191342,0.711940,0.304381,0.646677,0.396677,0.554381,0.461940,0.441342,0.495722,0.315263,0.495722,0.250000,0.500000,0.250000,0.500000,-0.250000,0.495722,-0.250000,0.495722,-0.315263,0.461940,-0.441342,0.396677,-0.554381,0.304381,-0.646677,0.191342,-0.711940,0.065263,-0.745722,0.000000,-0.745722,0.000000,-0.750000,-0.500000,-0.750000,
-0.500000,0.750000,0.000000,0.750000,0.000000,0.745722,0.000000,0.745722,$1*%
G04 Aperture macros list end*
%TA.AperFunction,EtchedComponent*%
%ADD10C,0.000000*%
%TD*%
%TA.AperFunction,SMDPad,CuDef*%
%ADD11RoundRect,0.150000X-1.600000X-0.150000X1.600000X-0.150000X1.600000X0.150000X-1.600000X0.150000X0*%
%TD*%
%TA.AperFunction,SMDPad,CuDef*%
%ADD12RoundRect,0.150000X-1.200000X-0.150000X1.200000X-0.150000X1.200000X0.150000X-1.200000X0.150000X0*%
%TD*%
%TA.AperFunction,ComponentPad*%
%ADD13C,0.700000*%
%TD*%
%TA.AperFunction,ComponentPad*%
%ADD14C,4.400000*%
%TD*%
%TA.AperFunction,ComponentPad*%
%ADD15R,1.500000X1.500000*%
%TD*%
%TA.AperFunction,ComponentPad*%
%ADD16C,1.500000*%
%TD*%
%TA.AperFunction,SMDPad,CuDef*%
%ADD17FreePoly0,0.000000*%
%TD*%
%TA.AperFunction,SMDPad,CuDef*%
%ADD18FreePoly1,0.000000*%
%TD*%
%TA.AperFunction,ViaPad*%
%ADD19C,0.800000*%
%TD*%
%TA.AperFunction,Conductor*%
%ADD20C,0.250000*%
%TD*%
G04 APERTURE END LIST*
D10*
%TA.AperFunction,EtchedComponent*%
%TO.C,JP1*%
G36*
X109470000Y-98090000D02*
G01*
X108970000Y-98090000D01*
X108970000Y-97490000D01*
X109470000Y-97490000D01*
X109470000Y-98090000D01*
G37*
%TD.AperFunction*%
%TD*%
D11*
%TO.P,J1,1,GND*%
%TO.N,/GND*%
X100500000Y-103400000D03*
D12*
%TO.P,J1,2,LS_A*%
%TO.N,/LS_A*%
X100900000Y-102600000D03*
%TO.P,J1,3,LS_B*%
%TO.N,/LS_B*%
X100900000Y-101800000D03*
%TO.P,J1,4,SDA*%
%TO.N,/SDA*%
X100900000Y-101000000D03*
%TO.P,J1,5,SCL*%
%TO.N,/SCL*%
X100900000Y-100200000D03*
%TO.P,J1,6,HEXP_DET*%
%TO.N,/HEXP_DET*%
X100900000Y-99400000D03*
%TO.P,J1,7,LS_C*%
%TO.N,/LS_C*%
X100900000Y-98600000D03*
%TO.P,J1,8,LS_D*%
%TO.N,/LS_D*%
X100900000Y-97800000D03*
D11*
%TO.P,J1,9,LS_E*%
%TO.N,/LS_E*%
X100500000Y-97000000D03*
%TO.P,J1,10,GND*%
%TO.N,/GND*%
X100500000Y-96200000D03*
%TD*%
D13*
%TO.P,H2,1,1*%
%TO.N,/GND*%
X110850000Y-87500000D03*
X111333274Y-86333274D03*
X111333274Y-88666726D03*
X112500000Y-85850000D03*
D14*
X112500000Y-87500000D03*
D13*
X112500000Y-89150000D03*
X113666726Y-86333274D03*
X113666726Y-88666726D03*
X114150000Y-87500000D03*
%TD*%
D15*
%TO.P,J3,1,1*%
%TO.N,/HS_F*%
X120000000Y-99500000D03*
D16*
%TO.P,J3,2,2*%
%TO.N,/HS_G*%
X122000000Y-99500000D03*
%TO.P,J3,3,3*%
%TO.N,/3V3*%
X124000000Y-99500000D03*
%TO.P,J3,4,4*%
%TO.N,/GND*%
X126000000Y-99500000D03*
%TD*%
D15*
%TO.P,J2,1,1*%
%TO.N,/SCL*%
X120000000Y-91500000D03*
D16*
%TO.P,J2,2,2*%
%TO.N,/SDA*%
X122000000Y-91500000D03*
%TO.P,J2,3,3*%
%TO.N,/3V3*%
X124000000Y-91500000D03*
%TO.P,J2,4,4*%
%TO.N,/GND*%
X126000000Y-91500000D03*
%TD*%
D13*
%TO.P,H1,1,1*%
%TO.N,/GND*%
X110850000Y-112500000D03*
X111333274Y-111333274D03*
X111333274Y-113666726D03*
X112500000Y-110850000D03*
D14*
X112500000Y-112500000D03*
D13*
X112500000Y-114150000D03*
X113666726Y-111333274D03*
X113666726Y-113666726D03*
X114150000Y-112500000D03*
%TD*%
D15*
%TO.P,J4,1,1*%
%TO.N,/HS_H*%
X120000000Y-107500000D03*
D16*
%TO.P,J4,2,2*%
%TO.N,/HS_I*%
X122000000Y-107500000D03*
%TO.P,J4,3,3*%
%TO.N,/3V3*%
X124000000Y-107500000D03*
%TO.P,J4,4,4*%
%TO.N,/GND*%
X126000000Y-107500000D03*
%TD*%
D17*
%TO.P,JP1,1,A*%
%TO.N,/HEXP_DET*%
X108570000Y-97790000D03*
D18*
%TO.P,JP1,2,B*%
%TO.N,/GND*%
X109870000Y-97790000D03*
%TD*%
D19*
%TO.N,/GND*%
X105470000Y-104470000D03*
X130615207Y-92479732D03*
X117160037Y-93866391D03*
X105410000Y-96200000D03*
X125730000Y-110490000D03*
X122363798Y-88445807D03*
X107950000Y-88900000D03*
X109220000Y-106680000D03*
X130810000Y-106680000D03*
X115570000Y-115570000D03*
X117160037Y-90830864D03*
X102870000Y-91440000D03*
X116840000Y-101600000D03*
X106680000Y-99000000D03*
X120650000Y-96520000D03*
%TD*%
D20*
%TO.N,/GND*%
X104400000Y-103400000D02*
X100500000Y-103400000D01*
X105470000Y-104470000D02*
X104400000Y-103400000D01*
X100500000Y-96200000D02*
X105410000Y-96200000D01*
%TO.N,/SDA*%
X117472190Y-97157810D02*
X122000000Y-92630000D01*
X100900000Y-101000000D02*
X113629574Y-101000000D01*
X113629574Y-101000000D02*
X117471764Y-97157810D01*
X117471764Y-97157810D02*
X117472190Y-97157810D01*
X122000000Y-92630000D02*
X122000000Y-91500000D01*
%TO.N,/SCL*%
X113160000Y-100200000D02*
X120000000Y-93360000D01*
X120000000Y-93360000D02*
X120000000Y-91500000D01*
X100900000Y-100200000D02*
X113160000Y-100200000D01*
%TO.N,/3V3*%
X124000000Y-91500000D02*
X124000000Y-99500000D01*
X124000000Y-99500000D02*
X124000000Y-107500000D01*
%TO.N,/HEXP_DET*%
X100900000Y-99400000D02*
X103800000Y-99400000D01*
X105410000Y-97790000D02*
X108570000Y-97790000D01*
X103800000Y-99400000D02*
X105410000Y-97790000D01*
%TD*%
%TA.AperFunction,Conductor*%
%TO.N,/GND*%
G36*
X116162754Y-81694236D02*
G01*
X116184028Y-81697987D01*
X116312229Y-81732339D01*
X116318367Y-81734156D01*
X116345333Y-81742918D01*
X116359392Y-81748457D01*
X116494840Y-81811617D01*
X116504426Y-81816608D01*
X131495038Y-90471443D01*
X131504152Y-90477249D01*
X131626857Y-90563172D01*
X131638674Y-90572572D01*
X131658933Y-90590814D01*
X131663621Y-90595264D01*
X131757971Y-90689618D01*
X131771865Y-90706177D01*
X131859341Y-90831114D01*
X131870148Y-90849833D01*
X131934605Y-90988073D01*
X131941997Y-91008386D01*
X131976520Y-91137250D01*
X131978035Y-91143561D01*
X131983695Y-91170194D01*
X131985933Y-91185169D01*
X131987868Y-91207294D01*
X131998274Y-91326306D01*
X131999018Y-91334806D01*
X131999489Y-91345608D01*
X131999489Y-108654822D01*
X131999017Y-108665636D01*
X131986092Y-108813280D01*
X131983853Y-108828251D01*
X131977126Y-108859894D01*
X131975611Y-108866207D01*
X131942006Y-108991605D01*
X131934612Y-109011916D01*
X131870148Y-109150146D01*
X131859340Y-109168864D01*
X131771855Y-109293796D01*
X131757960Y-109310354D01*
X131666164Y-109402142D01*
X131661458Y-109406608D01*
X131637405Y-109428265D01*
X131625555Y-109437691D01*
X131503744Y-109522979D01*
X131494623Y-109528789D01*
X116504430Y-118183382D01*
X116494835Y-118188377D01*
X116359402Y-118251531D01*
X116345318Y-118257079D01*
X116318418Y-118265820D01*
X116312190Y-118267665D01*
X116184033Y-118302004D01*
X116162748Y-118305757D01*
X116010803Y-118319051D01*
X115989187Y-118319051D01*
X115837241Y-118305757D01*
X115815956Y-118302004D01*
X115687798Y-118267665D01*
X115681570Y-118265820D01*
X115654670Y-118257079D01*
X115640586Y-118251531D01*
X115505153Y-118188377D01*
X115495558Y-118183382D01*
X109353164Y-114637068D01*
X105568999Y-112452279D01*
X105389016Y-112348366D01*
X109800000Y-112348366D01*
X109800000Y-112651633D01*
X109833952Y-112952966D01*
X109833954Y-112952982D01*
X109901434Y-113248633D01*
X109901438Y-113248645D01*
X110001592Y-113534866D01*
X110001598Y-113534880D01*
X110133172Y-113808096D01*
X110294515Y-114064872D01*
X110421871Y-114224573D01*
X111019500Y-113626944D01*
X111133274Y-113626944D01*
X111133274Y-113706508D01*
X111163722Y-113780017D01*
X111219983Y-113836278D01*
X111293492Y-113866726D01*
X111373056Y-113866726D01*
X111446565Y-113836278D01*
X111502826Y-113780017D01*
X111533274Y-113706508D01*
X111533274Y-113626944D01*
X111502826Y-113553435D01*
X111446565Y-113497174D01*
X111373056Y-113466726D01*
X111293492Y-113466726D01*
X111219983Y-113497174D01*
X111163722Y-113553435D01*
X111133274Y-113626944D01*
X111019500Y-113626944D01*
X111563708Y-113082736D01*
X111660967Y-113216602D01*
X111783398Y-113339033D01*
X111917262Y-113436290D01*
X110775425Y-114578127D01*
X110935127Y-114705484D01*
X111191903Y-114866827D01*
X111465119Y-114998401D01*
X111465133Y-114998407D01*
X111751354Y-115098561D01*
X111751366Y-115098565D01*
X112047017Y-115166045D01*
X112047033Y-115166047D01*
X112348366Y-115199999D01*
X112348368Y-115200000D01*
X112651632Y-115200000D01*
X112651633Y-115199999D01*
X112952966Y-115166047D01*
X112952982Y-115166045D01*
X113248633Y-115098565D01*
X113248645Y-115098561D01*
X113534866Y-114998407D01*
X113534880Y-114998401D01*
X113808096Y-114866827D01*
X114064872Y-114705484D01*
X114224573Y-114578126D01*
X113273391Y-113626944D01*
X113466726Y-113626944D01*
X113466726Y-113706508D01*
X113497174Y-113780017D01*
X113553435Y-113836278D01*
X113626944Y-113866726D01*
X113706508Y-113866726D01*
X113780017Y-113836278D01*
X113836278Y-113780017D01*
X113866726Y-113706508D01*
X113866726Y-113626944D01*
X113836278Y-113553435D01*
X113780017Y-113497174D01*
X113706508Y-113466726D01*
X113626944Y-113466726D01*
X113553435Y-113497174D01*
X113497174Y-113553435D01*
X113466726Y-113626944D01*
X113273391Y-113626944D01*
X113082737Y-113436290D01*
X113216602Y-113339033D01*
X113339033Y-113216602D01*
X113436290Y-113082737D01*
X114578126Y-114224573D01*
X114705484Y-114064872D01*
X114866827Y-113808096D01*
X114998401Y-113534880D01*
X114998407Y-113534866D01*
X115098561Y-113248645D01*
X115098565Y-113248633D01*
X115166045Y-112952982D01*
X115166047Y-112952966D01*
X115199999Y-112651633D01*
X115200000Y-112651631D01*
X115200000Y-112348368D01*
X115199999Y-112348366D01*
X115166047Y-112047033D01*
X115166045Y-112047017D01*
X115098565Y-111751366D01*
X115098561Y-111751354D01*
X114998407Y-111465133D01*
X114998401Y-111465119D01*
X114866827Y-111191903D01*
X114705484Y-110935127D01*
X114578127Y-110775425D01*
X113436290Y-111917262D01*
X113339033Y-111783398D01*
X113216602Y-111660967D01*
X113082736Y-111563709D01*
X113352953Y-111293492D01*
X113466726Y-111293492D01*
X113466726Y-111373056D01*
X113497174Y-111446565D01*
X113553435Y-111502826D01*
X113626944Y-111533274D01*
X113706508Y-111533274D01*
X113780017Y-111502826D01*
X113836278Y-111446565D01*
X113866726Y-111373056D01*
X113866726Y-111293492D01*
X113836278Y-111219983D01*
X113780017Y-111163722D01*
X113706508Y-111133274D01*
X113626944Y-111133274D01*
X113553435Y-111163722D01*
X113497174Y-111219983D01*
X113466726Y-111293492D01*
X113352953Y-111293492D01*
X114224573Y-110421871D01*
X114064872Y-110294515D01*
X113808096Y-110133172D01*
X113534880Y-110001598D01*
X113534866Y-110001592D01*
X113248645Y-109901438D01*
X113248633Y-109901434D01*
X112952982Y-109833954D01*
X112952966Y-109833952D01*
X112651633Y-109800000D01*
X112348366Y-109800000D01*
X112047033Y-109833952D01*
X112047017Y-109833954D01*
X111751366Y-109901434D01*
X111751354Y-109901438D01*
X111465133Y-110001592D01*
X111465119Y-110001598D01*
X111191903Y-110133172D01*
X110935127Y-110294515D01*
X110775425Y-110421871D01*
X111917263Y-111563709D01*
X111783398Y-111660967D01*
X111660967Y-111783398D01*
X111563709Y-111917263D01*
X110939938Y-111293492D01*
X111133274Y-111293492D01*
X111133274Y-111373056D01*
X111163722Y-111446565D01*
X111219983Y-111502826D01*
X111293492Y-111533274D01*
X111373056Y-111533274D01*
X111446565Y-111502826D01*
X111502826Y-111446565D01*
X111533274Y-111373056D01*
X111533274Y-111293492D01*
X111502826Y-111219983D01*
X111446565Y-111163722D01*
X111373056Y-111133274D01*
X111293492Y-111133274D01*
X111219983Y-111163722D01*
X111163722Y-111219983D01*
X111133274Y-111293492D01*
X110939938Y-111293492D01*
X110421871Y-110775425D01*
X110294515Y-110935127D01*
X110133172Y-111191903D01*
X110001598Y-111465119D01*
X110001592Y-111465133D01*
X109901438Y-111751354D01*
X109901434Y-111751366D01*
X109833954Y-112047017D01*
X109833952Y-112047033D01*
X109800000Y-112348366D01*
X105389016Y-112348366D01*
X102322142Y-110577705D01*
X100504941Y-109528543D01*
X100495820Y-109522732D01*
X100374946Y-109438099D01*
X100363098Y-109428676D01*
X100337411Y-109405549D01*
X100332701Y-109401079D01*
X100242003Y-109310385D01*
X100228110Y-109293829D01*
X100140612Y-109168878D01*
X100129806Y-109150164D01*
X100065335Y-109011916D01*
X100057947Y-108991619D01*
X100024737Y-108867698D01*
X100023228Y-108861413D01*
X100016039Y-108827599D01*
X100013801Y-108812636D01*
X100000972Y-108666063D01*
X100000500Y-108655251D01*
X100000500Y-106259760D01*
X100002026Y-106240364D01*
X100009639Y-106192293D01*
X100021624Y-106155406D01*
X100039237Y-106120839D01*
X100062033Y-106089464D01*
X100089464Y-106062033D01*
X100120839Y-106039237D01*
X100155406Y-106021624D01*
X100192293Y-106009639D01*
X100240365Y-106002025D01*
X100259760Y-106000500D01*
X104568995Y-106000500D01*
X104660041Y-105982389D01*
X104704328Y-105973580D01*
X104728376Y-105963618D01*
X104731927Y-105962809D01*
X104741726Y-105958089D01*
X104831811Y-105920775D01*
X104864331Y-105899045D01*
X104873601Y-105894582D01*
X104886978Y-105883913D01*
X104946542Y-105844114D01*
X104984570Y-105806085D01*
X104996541Y-105796541D01*
X105006088Y-105784567D01*
X105044114Y-105746542D01*
X105083913Y-105686978D01*
X105094582Y-105673601D01*
X105099045Y-105664331D01*
X105120775Y-105631811D01*
X105158089Y-105541726D01*
X105162809Y-105531927D01*
X105163618Y-105528376D01*
X105173580Y-105504328D01*
X105200500Y-105368993D01*
X105200500Y-105300000D01*
X105200500Y-105299500D01*
X105200500Y-105231007D01*
X105200500Y-105231004D01*
X105173581Y-105095678D01*
X105173580Y-105095674D01*
X105173580Y-105095672D01*
X105163619Y-105071624D01*
X105162809Y-105068073D01*
X105158084Y-105058263D01*
X105120775Y-104968189D01*
X105120775Y-104968188D01*
X105103887Y-104942915D01*
X105103887Y-104942914D01*
X105099046Y-104935670D01*
X105094582Y-104926399D01*
X105083908Y-104913014D01*
X105044114Y-104853458D01*
X105044112Y-104853455D01*
X105044110Y-104853453D01*
X105011021Y-104820365D01*
X105006093Y-104815437D01*
X104996541Y-104803459D01*
X104984562Y-104793906D01*
X104979634Y-104788978D01*
X104946545Y-104755888D01*
X104946544Y-104755887D01*
X104926334Y-104742383D01*
X104886982Y-104716089D01*
X104873601Y-104705418D01*
X104864332Y-104700954D01*
X104857093Y-104696117D01*
X104857087Y-104696114D01*
X104831814Y-104679227D01*
X104831813Y-104679226D01*
X104831811Y-104679225D01*
X104831808Y-104679223D01*
X104831803Y-104679221D01*
X104744957Y-104643249D01*
X104744952Y-104643247D01*
X104741733Y-104641913D01*
X104731927Y-104637191D01*
X104728380Y-104636381D01*
X104718736Y-104632386D01*
X104718727Y-104632384D01*
X104714873Y-104630788D01*
X104704328Y-104626420D01*
X104704324Y-104626419D01*
X104568995Y-104599500D01*
X104568993Y-104599500D01*
X104500207Y-104599500D01*
X104389801Y-104599500D01*
X104322762Y-104579815D01*
X104277007Y-104527011D01*
X104265804Y-104476362D01*
X104246855Y-101750362D01*
X104266073Y-101683187D01*
X104318558Y-101637066D01*
X104370852Y-101625500D01*
X113691181Y-101625500D01*
X113751603Y-101613481D01*
X113812026Y-101601463D01*
X113845366Y-101587652D01*
X113925860Y-101554312D01*
X113977083Y-101520084D01*
X114028307Y-101485858D01*
X114115432Y-101398733D01*
X114115433Y-101398731D01*
X114122499Y-101391665D01*
X114122502Y-101391661D01*
X117864876Y-97649286D01*
X117869697Y-97644486D01*
X117870923Y-97643668D01*
X117958048Y-97556543D01*
X117958050Y-97556539D01*
X122398729Y-93115860D01*
X122398733Y-93115858D01*
X122485858Y-93028733D01*
X122554311Y-92926286D01*
X122601463Y-92812452D01*
X122613885Y-92750000D01*
X122618606Y-92726267D01*
X122618606Y-92726263D01*
X122619910Y-92719709D01*
X122625500Y-92691607D01*
X122625500Y-92648911D01*
X122625989Y-92643425D01*
X122636835Y-92615829D01*
X122645185Y-92587393D01*
X122650026Y-92582266D01*
X122651547Y-92578398D01*
X122658245Y-92573564D01*
X122676611Y-92554116D01*
X122814646Y-92453828D01*
X122912319Y-92356155D01*
X122973642Y-92322670D01*
X123043334Y-92327654D01*
X123087681Y-92356155D01*
X123185354Y-92453828D01*
X123323387Y-92554115D01*
X123366051Y-92609444D01*
X123374500Y-92654432D01*
X123374500Y-98345568D01*
X123354815Y-98412607D01*
X123323388Y-98445883D01*
X123185354Y-98546172D01*
X123185352Y-98546174D01*
X123185351Y-98546174D01*
X123087681Y-98643845D01*
X123026358Y-98677330D01*
X122956666Y-98672346D01*
X122912319Y-98643845D01*
X122814648Y-98546174D01*
X122814646Y-98546172D01*
X122655405Y-98430476D01*
X122620335Y-98412607D01*
X122480029Y-98341117D01*
X122292826Y-98280290D01*
X122098422Y-98249500D01*
X122098417Y-98249500D01*
X121901583Y-98249500D01*
X121901578Y-98249500D01*
X121707173Y-98280290D01*
X121519970Y-98341117D01*
X121344595Y-98430475D01*
X121308385Y-98456784D01*
X121242578Y-98480263D01*
X121174524Y-98464437D01*
X121136235Y-98430778D01*
X121107546Y-98392454D01*
X121107544Y-98392452D01*
X121107543Y-98392451D01*
X120992335Y-98306206D01*
X120992328Y-98306202D01*
X120857482Y-98255908D01*
X120857483Y-98255908D01*
X120797883Y-98249501D01*
X120797881Y-98249500D01*
X120797873Y-98249500D01*
X120797864Y-98249500D01*
X119202129Y-98249500D01*
X119202123Y-98249501D01*
X119142516Y-98255908D01*
X119007671Y-98306202D01*
X119007664Y-98306206D01*
X118892455Y-98392452D01*
X118892452Y-98392455D01*
X118806206Y-98507664D01*
X118806202Y-98507671D01*
X118755908Y-98642517D01*
X118749501Y-98702116D01*
X118749500Y-98702135D01*
X118749500Y-100297870D01*
X118749501Y-100297876D01*
X118755908Y-100357483D01*
X118806202Y-100492328D01*
X118806206Y-100492335D01*
X118892452Y-100607544D01*
X118892455Y-100607547D01*
X119007664Y-100693793D01*
X119007671Y-100693797D01*
X119142517Y-100744091D01*
X119142516Y-100744091D01*
X119149444Y-100744835D01*
X119202127Y-100750500D01*
X120797872Y-100750499D01*
X120857483Y-100744091D01*
X120992331Y-100693796D01*
X121107546Y-100607546D01*
X121136236Y-100569220D01*
X121192166Y-100527353D01*
X121261857Y-100522368D01*
X121308386Y-100543217D01*
X121344590Y-100569521D01*
X121344592Y-100569522D01*
X121344595Y-100569524D01*
X121419214Y-100607544D01*
X121519970Y-100658882D01*
X121519972Y-100658882D01*
X121519975Y-100658884D01*
X121620317Y-100691487D01*
X121707173Y-100719709D01*
X121901578Y-100750500D01*
X121901583Y-100750500D01*
X122098422Y-100750500D01*
X122292826Y-100719709D01*
X122372574Y-100693797D01*
X122480025Y-100658884D01*
X122655405Y-100569524D01*
X122814646Y-100453828D01*
X122912319Y-100356155D01*
X122973642Y-100322670D01*
X123043334Y-100327654D01*
X123087681Y-100356155D01*
X123185354Y-100453828D01*
X123323387Y-100554115D01*
X123366051Y-100609444D01*
X123374500Y-100654432D01*
X123374500Y-106345568D01*
X123354815Y-106412607D01*
X123323388Y-106445883D01*
X123185354Y-106546172D01*
X123185352Y-106546174D01*
X123185351Y-106546174D01*
X123087681Y-106643845D01*
X123026358Y-106677330D01*
X122956666Y-106672346D01*
X122912319Y-106643845D01*
X122814648Y-106546174D01*
X122814646Y-106546172D01*
X122655405Y-106430476D01*
X122620335Y-106412607D01*
X122480029Y-106341117D01*
X122292826Y-106280290D01*
X122098422Y-106249500D01*
X122098417Y-106249500D01*
X121901583Y-106249500D01*
X121901578Y-106249500D01*
X121707173Y-106280290D01*
X121519970Y-106341117D01*
X121344595Y-106430475D01*
X121308385Y-106456784D01*
X121242578Y-106480263D01*
X121174524Y-106464437D01*
X121136235Y-106430778D01*
X121107546Y-106392454D01*
X121107544Y-106392452D01*
X121107543Y-106392451D01*
X120992335Y-106306206D01*
X120992328Y-106306202D01*
X120857482Y-106255908D01*
X120857483Y-106255908D01*
X120797883Y-106249501D01*
X120797881Y-106249500D01*
X120797873Y-106249500D01*
X120797864Y-106249500D01*
X119202129Y-106249500D01*
X119202123Y-106249501D01*
X119142516Y-106255908D01*
X119007671Y-106306202D01*
X119007664Y-106306206D01*
X118892455Y-106392452D01*
X118892452Y-106392455D01*
X118806206Y-106507664D01*
X118806202Y-106507671D01*
X118755908Y-106642517D01*
X118749501Y-106702116D01*
X118749500Y-106702135D01*
X118749500Y-108297870D01*
X118749501Y-108297876D01*
X118755908Y-108357483D01*
X118806202Y-108492328D01*
X118806206Y-108492335D01*
X118892452Y-108607544D01*
X118892455Y-108607547D01*
X119007664Y-108693793D01*
X119007671Y-108693797D01*
X119142517Y-108744091D01*
X119142516Y-108744091D01*
X119149444Y-108744835D01*
X119202127Y-108750500D01*
X120797872Y-108750499D01*
X120857483Y-108744091D01*
X120992331Y-108693796D01*
X121107546Y-108607546D01*
X121136236Y-108569220D01*
X121192166Y-108527353D01*
X121261857Y-108522368D01*
X121308386Y-108543217D01*
X121344590Y-108569521D01*
X121344592Y-108569522D01*
X121344595Y-108569524D01*
X121419214Y-108607544D01*
X121519970Y-108658882D01*
X121519972Y-108658882D01*
X121519975Y-108658884D01*
X121542070Y-108666063D01*
X121707173Y-108719709D01*
X121901578Y-108750500D01*
X121901583Y-108750500D01*
X122098422Y-108750500D01*
X122292826Y-108719709D01*
X122372574Y-108693797D01*
X122480025Y-108658884D01*
X122655405Y-108569524D01*
X122814646Y-108453828D01*
X122912319Y-108356155D01*
X122973642Y-108322670D01*
X123043334Y-108327654D01*
X123087681Y-108356155D01*
X123185354Y-108453828D01*
X123344595Y-108569524D01*
X123419214Y-108607544D01*
X123519970Y-108658882D01*
X123519972Y-108658882D01*
X123519975Y-108658884D01*
X123542070Y-108666063D01*
X123707173Y-108719709D01*
X123901578Y-108750500D01*
X123901583Y-108750500D01*
X124098422Y-108750500D01*
X124292826Y-108719709D01*
X124372574Y-108693797D01*
X124480025Y-108658884D01*
X124655405Y-108569524D01*
X124814646Y-108453828D01*
X124953828Y-108314646D01*
X125069524Y-108155405D01*
X125142141Y-108012884D01*
X125164940Y-107981505D01*
X125557861Y-107588583D01*
X125580667Y-107673694D01*
X125639910Y-107776306D01*
X125723694Y-107860090D01*
X125826306Y-107919333D01*
X125911414Y-107942137D01*
X125309873Y-108543677D01*
X125309873Y-108543678D01*
X125344858Y-108569096D01*
X125520164Y-108658418D01*
X125707294Y-108719221D01*
X125901618Y-108750000D01*
X126098382Y-108750000D01*
X126292705Y-108719221D01*
X126479835Y-108658418D01*
X126655143Y-108569095D01*
X126690125Y-108543678D01*
X126690126Y-108543678D01*
X126088585Y-107942137D01*
X126173694Y-107919333D01*
X126276306Y-107860090D01*
X126360090Y-107776306D01*
X126419333Y-107673694D01*
X126442138Y-107588585D01*
X127043678Y-108190126D01*
X127043678Y-108190125D01*
X127069095Y-108155143D01*
X127158418Y-107979835D01*
X127219221Y-107792705D01*
X127250000Y-107598382D01*
X127250000Y-107401617D01*
X127219221Y-107207294D01*
X127158418Y-107020164D01*
X127069096Y-106844858D01*
X127043678Y-106809873D01*
X127043677Y-106809873D01*
X126442137Y-107411413D01*
X126419333Y-107326306D01*
X126360090Y-107223694D01*
X126276306Y-107139910D01*
X126173694Y-107080667D01*
X126088584Y-107057861D01*
X126690125Y-106456320D01*
X126690125Y-106456319D01*
X126655145Y-106430905D01*
X126479835Y-106341581D01*
X126292705Y-106280778D01*
X126098382Y-106250000D01*
X125901618Y-106250000D01*
X125707294Y-106280778D01*
X125520161Y-106341582D01*
X125344863Y-106430899D01*
X125344859Y-106430902D01*
X125309873Y-106456320D01*
X125309872Y-106456320D01*
X125911415Y-107057861D01*
X125826306Y-107080667D01*
X125723694Y-107139910D01*
X125639910Y-107223694D01*
X125580667Y-107326306D01*
X125557861Y-107411414D01*
X125164940Y-107018493D01*
X125142137Y-106987108D01*
X125069524Y-106844595D01*
X124953828Y-106685354D01*
X124814646Y-106546172D01*
X124676612Y-106445884D01*
X124633949Y-106390556D01*
X124625500Y-106345568D01*
X124625500Y-100654432D01*
X124645185Y-100587393D01*
X124676611Y-100554116D01*
X124814646Y-100453828D01*
X124953828Y-100314646D01*
X125069524Y-100155405D01*
X125142141Y-100012884D01*
X125164940Y-99981505D01*
X125557861Y-99588583D01*
X125580667Y-99673694D01*
X125639910Y-99776306D01*
X125723694Y-99860090D01*
X125826306Y-99919333D01*
X125911414Y-99942137D01*
X125309873Y-100543677D01*
X125309873Y-100543678D01*
X125344858Y-100569096D01*
X125520164Y-100658418D01*
X125707294Y-100719221D01*
X125901618Y-100750000D01*
X126098382Y-100750000D01*
X126292705Y-100719221D01*
X126479835Y-100658418D01*
X126655143Y-100569095D01*
X126690125Y-100543678D01*
X126690126Y-100543678D01*
X126088585Y-99942137D01*
X126173694Y-99919333D01*
X126276306Y-99860090D01*
X126360090Y-99776306D01*
X126419333Y-99673694D01*
X126442138Y-99588585D01*
X127043678Y-100190126D01*
X127043678Y-100190125D01*
X127069095Y-100155143D01*
X127158418Y-99979835D01*
X127219221Y-99792705D01*
X127250000Y-99598382D01*
X127250000Y-99401617D01*
X127219221Y-99207294D01*
X127158418Y-99020164D01*
X127069096Y-98844858D01*
X127043678Y-98809873D01*
X127043677Y-98809873D01*
X126442137Y-99411413D01*
X126419333Y-99326306D01*
X126360090Y-99223694D01*
X126276306Y-99139910D01*
X126173694Y-99080667D01*
X126088584Y-99057861D01*
X126690125Y-98456320D01*
X126690125Y-98456319D01*
X126655145Y-98430905D01*
X126479835Y-98341581D01*
X126292705Y-98280778D01*
X126098382Y-98250000D01*
X125901618Y-98250000D01*
X125707294Y-98280778D01*
X125520161Y-98341582D01*
X125344863Y-98430899D01*
X125344859Y-98430902D01*
X125309873Y-98456320D01*
X125309872Y-98456320D01*
X125911415Y-99057861D01*
X125826306Y-99080667D01*
X125723694Y-99139910D01*
X125639910Y-99223694D01*
X125580667Y-99326306D01*
X125557861Y-99411414D01*
X125164940Y-99018493D01*
X125142137Y-98987108D01*
X125069524Y-98844595D01*
X124953828Y-98685354D01*
X124814646Y-98546172D01*
X124676612Y-98445884D01*
X124633949Y-98390556D01*
X124625500Y-98345568D01*
X124625500Y-92654432D01*
X124645185Y-92587393D01*
X124676611Y-92554116D01*
X124814646Y-92453828D01*
X124953828Y-92314646D01*
X125069524Y-92155405D01*
X125142141Y-92012884D01*
X125164940Y-91981505D01*
X125557861Y-91588583D01*
X125580667Y-91673694D01*
X125639910Y-91776306D01*
X125723694Y-91860090D01*
X125826306Y-91919333D01*
X125911414Y-91942137D01*
X125309873Y-92543677D01*
X125309873Y-92543678D01*
X125344858Y-92569096D01*
X125520164Y-92658418D01*
X125707294Y-92719221D01*
X125901618Y-92750000D01*
X126098382Y-92750000D01*
X126292705Y-92719221D01*
X126479835Y-92658418D01*
X126655143Y-92569095D01*
X126690125Y-92543678D01*
X126690126Y-92543678D01*
X126088585Y-91942137D01*
X126173694Y-91919333D01*
X126276306Y-91860090D01*
X126360090Y-91776306D01*
X126419333Y-91673694D01*
X126442138Y-91588585D01*
X127043678Y-92190126D01*
X127043678Y-92190125D01*
X127069095Y-92155143D01*
X127158418Y-91979835D01*
X127219221Y-91792705D01*
X127250000Y-91598382D01*
X127250000Y-91401617D01*
X127219221Y-91207294D01*
X127158418Y-91020164D01*
X127069096Y-90844858D01*
X127043678Y-90809873D01*
X127043677Y-90809873D01*
X126442137Y-91411413D01*
X126419333Y-91326306D01*
X126360090Y-91223694D01*
X126276306Y-91139910D01*
X126173694Y-91080667D01*
X126088584Y-91057861D01*
X126690125Y-90456320D01*
X126690125Y-90456319D01*
X126655145Y-90430905D01*
X126479835Y-90341581D01*
X126292705Y-90280778D01*
X126098382Y-90250000D01*
X125901618Y-90250000D01*
X125707294Y-90280778D01*
X125520161Y-90341582D01*
X125344863Y-90430899D01*
X125344859Y-90430902D01*
X125309873Y-90456320D01*
X125309872Y-90456320D01*
X125911415Y-91057861D01*
X125826306Y-91080667D01*
X125723694Y-91139910D01*
X125639910Y-91223694D01*
X125580667Y-91326306D01*
X125557861Y-91411414D01*
X125164940Y-91018493D01*
X125142137Y-90987108D01*
X125069524Y-90844595D01*
X125059729Y-90831114D01*
X125044297Y-90809873D01*
X124953828Y-90685354D01*
X124814646Y-90546172D01*
X124655405Y-90430476D01*
X124655403Y-90430475D01*
X124480029Y-90341117D01*
X124292826Y-90280290D01*
X124098422Y-90249500D01*
X124098417Y-90249500D01*
X123901583Y-90249500D01*
X123901578Y-90249500D01*
X123707173Y-90280290D01*
X123519970Y-90341117D01*
X123344594Y-90430476D01*
X123280212Y-90477253D01*
X123185354Y-90546172D01*
X123185352Y-90546174D01*
X123185351Y-90546174D01*
X123087681Y-90643845D01*
X123026358Y-90677330D01*
X122956666Y-90672346D01*
X122912319Y-90643845D01*
X122814648Y-90546174D01*
X122814646Y-90546172D01*
X122655405Y-90430476D01*
X122655403Y-90430475D01*
X122480029Y-90341117D01*
X122292826Y-90280290D01*
X122098422Y-90249500D01*
X122098417Y-90249500D01*
X121901583Y-90249500D01*
X121901578Y-90249500D01*
X121707173Y-90280290D01*
X121519970Y-90341117D01*
X121344595Y-90430475D01*
X121308385Y-90456784D01*
X121242578Y-90480263D01*
X121174524Y-90464437D01*
X121136235Y-90430778D01*
X121107546Y-90392454D01*
X121107544Y-90392452D01*
X121107543Y-90392451D01*
X120992335Y-90306206D01*
X120992328Y-90306202D01*
X120857482Y-90255908D01*
X120857483Y-90255908D01*
X120797883Y-90249501D01*
X120797881Y-90249500D01*
X120797873Y-90249500D01*
X120797864Y-90249500D01*
X119202129Y-90249500D01*
X119202123Y-90249501D01*
X119142516Y-90255908D01*
X119007671Y-90306202D01*
X119007664Y-90306206D01*
X118892455Y-90392452D01*
X118892452Y-90392455D01*
X118806206Y-90507664D01*
X118806202Y-90507671D01*
X118755908Y-90642517D01*
X118749501Y-90702116D01*
X118749500Y-90702135D01*
X118749500Y-92297870D01*
X118749501Y-92297876D01*
X118755908Y-92357483D01*
X118806202Y-92492328D01*
X118806206Y-92492335D01*
X118892452Y-92607544D01*
X118892455Y-92607547D01*
X119007664Y-92693793D01*
X119007671Y-92693797D01*
X119052618Y-92710561D01*
X119142517Y-92744091D01*
X119202127Y-92750500D01*
X119250500Y-92750499D01*
X119259185Y-92753049D01*
X119268147Y-92751761D01*
X119292183Y-92762738D01*
X119317537Y-92770182D01*
X119323466Y-92777024D01*
X119331703Y-92780786D01*
X119345989Y-92803016D01*
X119363293Y-92822985D01*
X119365580Y-92833501D01*
X119369477Y-92839564D01*
X119374500Y-92874499D01*
X119374500Y-93049548D01*
X119354815Y-93116587D01*
X119338181Y-93137229D01*
X112937229Y-99538181D01*
X112875906Y-99571666D01*
X112849548Y-99574500D01*
X104809452Y-99574500D01*
X104742413Y-99554815D01*
X104696658Y-99502011D01*
X104686714Y-99432853D01*
X104715739Y-99369297D01*
X104721771Y-99362819D01*
X105632771Y-98451819D01*
X105694094Y-98418334D01*
X105720452Y-98415500D01*
X107554551Y-98415500D01*
X107621590Y-98435185D01*
X107663821Y-98482486D01*
X107664269Y-98482228D01*
X107665509Y-98484375D01*
X107665769Y-98484667D01*
X107666305Y-98485755D01*
X107732120Y-98599749D01*
X107732132Y-98599767D01*
X107810669Y-98702116D01*
X107812459Y-98704449D01*
X107905551Y-98797541D01*
X107905555Y-98797544D01*
X108010232Y-98877867D01*
X108010236Y-98877869D01*
X108010243Y-98877875D01*
X108010250Y-98877879D01*
X108124248Y-98943696D01*
X108124249Y-98943697D01*
X108124252Y-98943698D01*
X108124257Y-98943701D01*
X108246171Y-98994200D01*
X108373338Y-99028275D01*
X108504174Y-99045500D01*
X108504181Y-99045500D01*
X109070000Y-99045500D01*
X109141940Y-99040355D01*
X109279992Y-98999819D01*
X109401032Y-98922031D01*
X109495254Y-98813294D01*
X109546027Y-98702116D01*
X109555023Y-98682419D01*
X109555024Y-98682414D01*
X109555755Y-98677330D01*
X109575500Y-98540000D01*
X109575500Y-97040000D01*
X109570355Y-96968060D01*
X109529819Y-96830008D01*
X109499261Y-96782459D01*
X109452032Y-96708969D01*
X109452028Y-96708965D01*
X109343299Y-96614750D01*
X109343297Y-96614748D01*
X109343294Y-96614746D01*
X109343290Y-96614744D01*
X109212419Y-96554976D01*
X109212414Y-96554975D01*
X109070000Y-96534500D01*
X108504174Y-96534500D01*
X108504166Y-96534500D01*
X108373341Y-96551724D01*
X108246170Y-96585800D01*
X108124249Y-96636302D01*
X108124248Y-96636303D01*
X108010250Y-96702120D01*
X108010232Y-96702132D01*
X107905555Y-96782455D01*
X107905545Y-96782464D01*
X107812464Y-96875545D01*
X107812455Y-96875555D01*
X107732132Y-96980232D01*
X107732120Y-96980250D01*
X107666305Y-97094244D01*
X107665769Y-97095333D01*
X107665524Y-97095599D01*
X107664269Y-97097772D01*
X107663783Y-97097491D01*
X107618469Y-97146757D01*
X107554551Y-97164500D01*
X105348389Y-97164500D01*
X105297535Y-97174615D01*
X105297530Y-97174616D01*
X105287971Y-97176518D01*
X105227548Y-97188537D01*
X105180397Y-97208067D01*
X105113715Y-97235688D01*
X105113714Y-97235689D01*
X105091347Y-97250633D01*
X105091344Y-97250635D01*
X105011268Y-97304140D01*
X104967705Y-97347703D01*
X104924142Y-97391267D01*
X104924139Y-97391270D01*
X104431054Y-97884354D01*
X104369731Y-97917839D01*
X104300039Y-97912855D01*
X104244106Y-97870983D01*
X104219689Y-97805519D01*
X104219376Y-97797535D01*
X104218312Y-97644527D01*
X104203582Y-95525362D01*
X104222800Y-95458187D01*
X104275285Y-95412066D01*
X104327579Y-95400500D01*
X104568995Y-95400500D01*
X104660041Y-95382389D01*
X104704328Y-95373580D01*
X104728376Y-95363618D01*
X104731927Y-95362809D01*
X104741726Y-95358089D01*
X104831811Y-95320775D01*
X104864331Y-95299045D01*
X104873601Y-95294582D01*
X104886978Y-95283913D01*
X104946542Y-95244114D01*
X104984570Y-95206085D01*
X104996541Y-95196541D01*
X105006088Y-95184567D01*
X105044114Y-95146542D01*
X105083913Y-95086978D01*
X105094582Y-95073601D01*
X105099045Y-95064331D01*
X105120775Y-95031811D01*
X105158089Y-94941726D01*
X105162809Y-94931927D01*
X105163618Y-94928376D01*
X105173580Y-94904328D01*
X105200500Y-94768993D01*
X105200500Y-94700000D01*
X105200500Y-94699500D01*
X105200500Y-94631007D01*
X105200500Y-94631004D01*
X105173581Y-94495678D01*
X105173580Y-94495674D01*
X105173580Y-94495672D01*
X105163619Y-94471624D01*
X105162809Y-94468073D01*
X105158084Y-94458263D01*
X105120775Y-94368189D01*
X105120775Y-94368188D01*
X105103887Y-94342915D01*
X105103887Y-94342914D01*
X105099046Y-94335670D01*
X105094582Y-94326399D01*
X105083908Y-94313014D01*
X105044114Y-94253458D01*
X105044112Y-94253455D01*
X105044110Y-94253453D01*
X105011021Y-94220365D01*
X105006093Y-94215437D01*
X104996541Y-94203459D01*
X104984562Y-94193906D01*
X104979634Y-94188978D01*
X104946545Y-94155888D01*
X104946544Y-94155887D01*
X104926334Y-94142383D01*
X104886982Y-94116089D01*
X104873601Y-94105418D01*
X104864332Y-94100954D01*
X104857093Y-94096117D01*
X104857087Y-94096114D01*
X104831814Y-94079227D01*
X104831813Y-94079226D01*
X104831811Y-94079225D01*
X104831808Y-94079223D01*
X104831803Y-94079221D01*
X104744957Y-94043249D01*
X104744952Y-94043247D01*
X104741733Y-94041913D01*
X104731927Y-94037191D01*
X104728380Y-94036381D01*
X104718736Y-94032386D01*
X104718727Y-94032384D01*
X104714873Y-94030788D01*
X104704328Y-94026420D01*
X104704324Y-94026419D01*
X104568995Y-93999500D01*
X104568993Y-93999500D01*
X104500207Y-93999500D01*
X100259757Y-93999500D01*
X100240359Y-93997973D01*
X100192299Y-93990361D01*
X100155401Y-93978372D01*
X100120844Y-93960764D01*
X100089459Y-93937961D01*
X100062037Y-93910539D01*
X100039233Y-93879152D01*
X100021627Y-93844598D01*
X100009638Y-93807700D01*
X100006783Y-93789675D01*
X100002026Y-93759635D01*
X100000500Y-93740239D01*
X100000500Y-91345170D01*
X100000972Y-91334358D01*
X100008162Y-91252219D01*
X100013898Y-91186693D01*
X100016130Y-91171763D01*
X100022878Y-91140027D01*
X100024367Y-91133823D01*
X100057984Y-91008386D01*
X100065375Y-90988082D01*
X100065830Y-90987106D01*
X100129844Y-90849841D01*
X100140644Y-90831137D01*
X100228137Y-90706194D01*
X100242028Y-90689640D01*
X100242050Y-90689618D01*
X100333848Y-90597825D01*
X100338501Y-90593411D01*
X100362601Y-90571713D01*
X100374418Y-90562313D01*
X100496262Y-90477001D01*
X100505341Y-90471218D01*
X105914278Y-87348366D01*
X109800000Y-87348366D01*
X109800000Y-87651633D01*
X109833952Y-87952966D01*
X109833954Y-87952982D01*
X109901434Y-88248633D01*
X109901438Y-88248645D01*
X110001592Y-88534866D01*
X110001598Y-88534880D01*
X110133172Y-88808096D01*
X110294515Y-89064872D01*
X110421871Y-89224573D01*
X111019500Y-88626944D01*
X111133274Y-88626944D01*
X111133274Y-88706508D01*
X111163722Y-88780017D01*
X111219983Y-88836278D01*
X111293492Y-88866726D01*
X111373056Y-88866726D01*
X111446565Y-88836278D01*
X111502826Y-88780017D01*
X111533274Y-88706508D01*
X111533274Y-88626944D01*
X111502826Y-88553435D01*
X111446565Y-88497174D01*
X111373056Y-88466726D01*
X111293492Y-88466726D01*
X111219983Y-88497174D01*
X111163722Y-88553435D01*
X111133274Y-88626944D01*
X111019500Y-88626944D01*
X111563708Y-88082736D01*
X111660967Y-88216602D01*
X111783398Y-88339033D01*
X111917262Y-88436290D01*
X110775425Y-89578127D01*
X110935127Y-89705484D01*
X111191903Y-89866827D01*
X111465119Y-89998401D01*
X111465133Y-89998407D01*
X111751354Y-90098561D01*
X111751366Y-90098565D01*
X112047017Y-90166045D01*
X112047033Y-90166047D01*
X112348366Y-90199999D01*
X112348368Y-90200000D01*
X112651632Y-90200000D01*
X112651633Y-90199999D01*
X112952966Y-90166047D01*
X112952982Y-90166045D01*
X113248633Y-90098565D01*
X113248645Y-90098561D01*
X113534866Y-89998407D01*
X113534880Y-89998401D01*
X113808096Y-89866827D01*
X114064872Y-89705484D01*
X114224573Y-89578126D01*
X113273391Y-88626944D01*
X113466726Y-88626944D01*
X113466726Y-88706508D01*
X113497174Y-88780017D01*
X113553435Y-88836278D01*
X113626944Y-88866726D01*
X113706508Y-88866726D01*
X113780017Y-88836278D01*
X113836278Y-88780017D01*
X113866726Y-88706508D01*
X113866726Y-88626944D01*
X113836278Y-88553435D01*
X113780017Y-88497174D01*
X113706508Y-88466726D01*
X113626944Y-88466726D01*
X113553435Y-88497174D01*
X113497174Y-88553435D01*
X113466726Y-88626944D01*
X113273391Y-88626944D01*
X113082737Y-88436290D01*
X113216602Y-88339033D01*
X113339033Y-88216602D01*
X113436290Y-88082737D01*
X114578126Y-89224573D01*
X114705484Y-89064872D01*
X114866827Y-88808096D01*
X114998401Y-88534880D01*
X114998407Y-88534866D01*
X115098561Y-88248645D01*
X115098565Y-88248633D01*
X115166045Y-87952982D01*
X115166047Y-87952966D01*
X115199999Y-87651633D01*
X115200000Y-87651631D01*
X115200000Y-87348368D01*
X115199999Y-87348366D01*
X115166047Y-87047033D01*
X115166045Y-87047017D01*
X115098565Y-86751366D01*
X115098561Y-86751354D01*
X114998407Y-86465133D01*
X114998401Y-86465119D01*
X114866827Y-86191903D01*
X114705484Y-85935127D01*
X114578127Y-85775425D01*
X113436290Y-86917262D01*
X113339033Y-86783398D01*
X113216602Y-86660967D01*
X113082736Y-86563709D01*
X113352953Y-86293492D01*
X113466726Y-86293492D01*
X113466726Y-86373056D01*
X113497174Y-86446565D01*
X113553435Y-86502826D01*
X113626944Y-86533274D01*
X113706508Y-86533274D01*
X113780017Y-86502826D01*
X113836278Y-86446565D01*
X113866726Y-86373056D01*
X113866726Y-86293492D01*
X113836278Y-86219983D01*
X113780017Y-86163722D01*
X113706508Y-86133274D01*
X113626944Y-86133274D01*
X113553435Y-86163722D01*
X113497174Y-86219983D01*
X113466726Y-86293492D01*
X113352953Y-86293492D01*
X114224573Y-85421871D01*
X114064872Y-85294515D01*
X113808096Y-85133172D01*
X113534880Y-85001598D01*
X113534866Y-85001592D01*
X113248645Y-84901438D01*
X113248633Y-84901434D01*
X112952982Y-84833954D01*
X112952966Y-84833952D01*
X112651633Y-84800000D01*
X112348366Y-84800000D01*
X112047033Y-84833952D01*
X112047017Y-84833954D01*
X111751366Y-84901434D01*
X111751354Y-84901438D01*
X111465133Y-85001592D01*
X111465119Y-85001598D01*
X111191903Y-85133172D01*
X110935127Y-85294515D01*
X110775425Y-85421871D01*
X111917263Y-86563709D01*
X111783398Y-86660967D01*
X111660967Y-86783398D01*
X111563709Y-86917263D01*
X110939938Y-86293492D01*
X111133274Y-86293492D01*
X111133274Y-86373056D01*
X111163722Y-86446565D01*
X111219983Y-86502826D01*
X111293492Y-86533274D01*
X111373056Y-86533274D01*
X111446565Y-86502826D01*
X111502826Y-86446565D01*
X111533274Y-86373056D01*
X111533274Y-86293492D01*
X111502826Y-86219983D01*
X111446565Y-86163722D01*
X111373056Y-86133274D01*
X111293492Y-86133274D01*
X111219983Y-86163722D01*
X111163722Y-86219983D01*
X111133274Y-86293492D01*
X110939938Y-86293492D01*
X110421871Y-85775425D01*
X110294515Y-85935127D01*
X110133172Y-86191903D01*
X110001598Y-86465119D01*
X110001592Y-86465133D01*
X109901438Y-86751354D01*
X109901434Y-86751366D01*
X109833954Y-87047017D01*
X109833952Y-87047033D01*
X109800000Y-87348366D01*
X105914278Y-87348366D01*
X115495571Y-81816602D01*
X115505138Y-81811622D01*
X115640607Y-81748452D01*
X115654647Y-81742921D01*
X115681647Y-81734148D01*
X115687731Y-81732346D01*
X115815963Y-81697987D01*
X115837231Y-81694237D01*
X115989194Y-81680942D01*
X116010796Y-81680942D01*
X116162754Y-81694236D01*
G37*
%TD.AperFunction*%
%TD*%
M02*
