M48
; DRILL file {KiCad 9.0.7} date 2026-03-21T21:19:56+0000
; FORMAT={-:-/ absolute / metric / decimal}
; #@! TF.CreationDate,2026-03-21T21:19:56+00:00
; #@! TF.GenerationSoftware,Kicad,Pcbnew,9.0.7
; #@! TF.FileFunction,Plated,1,2,PTH
FMAT,2
METRIC
; #@! TA.AperFunction,Plated,PTH,ViaDrill
T1C0.400
; #@! TA.AperFunction,Plated,PTH,ComponentDrill
T2C0.400
; #@! TA.AperFunction,Plated,PTH,ComponentDrill
T3C0.900
; #@! TA.AperFunction,Plated,PTH,ComponentDrill
T4C2.200
%
G90
G05
T1
X102.87Y-91.44
X105.41Y-96.2
X105.47Y-104.47
X106.68Y-99.0
X107.95Y-88.9
X109.22Y-106.68
X115.57Y-115.57
X116.84Y-101.6
X117.16Y-90.831
X117.16Y-93.866
X120.65Y-96.52
X122.364Y-88.446
X125.73Y-110.49
X130.615Y-92.48
X130.81Y-106.68
T2
X110.85Y-87.5
X110.85Y-112.5
X111.333Y-86.333
X111.333Y-88.667
X111.333Y-111.333
X111.333Y-113.667
X112.5Y-85.85
X112.5Y-89.15
X112.5Y-110.85
X112.5Y-114.15
X113.667Y-86.333
X113.667Y-88.667
X113.667Y-111.333
X113.667Y-113.667
X114.15Y-87.5
X114.15Y-112.5
T3
X120.0Y-91.5
X120.0Y-99.5
X120.0Y-107.5
X122.0Y-91.5
X122.0Y-99.5
X122.0Y-107.5
X124.0Y-91.5
X124.0Y-99.5
X124.0Y-107.5
X126.0Y-91.5
X126.0Y-99.5
X126.0Y-107.5
T4
X112.5Y-87.5
X112.5Y-112.5
M30
